<svg xmlns="http://www.w3.org/2000/svg" xmlns:xlink="http://www.w3.org/1999/xlink" width="500" zoomAndPan="magnify" viewBox="0 0 375 374.999991" height="500" preserveAspectRatio="xMidYMid meet" version="1.2"><defs><clipPath id="72d356dab3"><path d="M 135 214 L 265 214 L 265 229 L 135 229 Z M 135 214 "/></clipPath><clipPath id="ff003483d0"><path d="M 206.070312 337.496094 L 83.574219 239.691406 L 177.167969 122.472656 L 299.664062 220.277344 Z M 206.070312 337.496094 "/></clipPath><clipPath id="80ab0802d1"><path d="M 206.070312 337.496094 L 83.574219 239.691406 L 177.167969 122.472656 L 299.664062 220.277344 Z M 206.070312 337.496094 "/></clipPath><clipPath id="36651f6e8a"><path d="M 206.070312 337.496094 L 83.574219 239.691406 L 177.167969 122.472656 L 299.664062 220.277344 Z M 206.070312 337.496094 "/></clipPath><clipPath id="751d100d13"><path d="M 136 219 L 266 219 L 266 237 L 136 237 Z M 136 219 "/></clipPath><clipPath id="64486a9cfb"><path d="M 206.070312 337.496094 L 83.574219 239.691406 L 177.167969 122.472656 L 299.664062 220.277344 Z M 206.070312 337.496094 "/></clipPath><clipPath id="2986259e3e"><path d="M 206.070312 337.496094 L 83.574219 239.691406 L 177.167969 122.472656 L 299.664062 220.277344 Z M 206.070312 337.496094 "/></clipPath><clipPath id="a4f289047f"><path d="M 206.070312 337.496094 L 83.574219 239.691406 L 177.167969 122.472656 L 299.664062 220.277344 Z M 206.070312 337.496094 "/></clipPath><clipPath id="aafb86b8c2"><path d="M 130 225 L 136 225 L 136 244 L 130 244 Z M 130 225 "/></clipPath><clipPath id="ac07cc3f9b"><path d="M 206.070312 337.496094 L 83.574219 239.691406 L 177.167969 122.472656 L 299.664062 220.277344 Z M 206.070312 337.496094 "/></clipPath><clipPath id="ffba24d111"><path d="M 206.070312 337.496094 L 83.574219 239.691406 L 177.167969 122.472656 L 299.664062 220.277344 Z M 206.070312 337.496094 "/></clipPath><clipPath id="3b1d3a94f5"><path d="M 206.070312 337.496094 L 83.574219 239.691406 L 177.167969 122.472656 L 299.664062 220.277344 Z M 206.070312 337.496094 "/></clipPath><clipPath id="a0272a3434"><path d="M 264 216 L 291 216 L 291 231 L 264 231 Z M 264 216 "/></clipPath><clipPath id="673462da44"><path d="M 206.070312 337.496094 L 83.574219 239.691406 L 177.167969 122.472656 L 299.664062 220.277344 Z M 206.070312 337.496094 "/></clipPath><clipPath id="2744baaaa0"><path d="M 206.070312 337.496094 L 83.574219 239.691406 L 177.167969 122.472656 L 299.664062 220.277344 Z M 206.070312 337.496094 "/></clipPath><clipPath id="0244e50dda"><path d="M 206.070312 337.496094 L 83.574219 239.691406 L 177.167969 122.472656 L 299.664062 220.277344 Z M 206.070312 337.496094 "/></clipPath><clipPath id="70b515f040"><path d="M 124 226 L 127 226 L 127 244 L 124 244 Z M 124 226 "/></clipPath><clipPath id="9ff9750cee"><path d="M 206.070312 337.496094 L 83.574219 239.691406 L 177.167969 122.472656 L 299.664062 220.277344 Z M 206.070312 337.496094 "/></clipPath><clipPath id="e7c108a04a"><path d="M 206.070312 337.496094 L 83.574219 239.691406 L 177.167969 122.472656 L 299.664062 220.277344 Z M 206.070312 337.496094 "/></clipPath><clipPath id="9b62db8a89"><path d="M 206.070312 337.496094 L 83.574219 239.691406 L 177.167969 122.472656 L 299.664062 220.277344 Z M 206.070312 337.496094 "/></clipPath><clipPath id="ae92786018"><path d="M 136 227 L 266 227 L 266 243 L 136 243 Z M 136 227 "/></clipPath><clipPath id="64ce9e310c"><path d="M 206.070312 337.496094 L 83.574219 239.691406 L 177.167969 122.472656 L 299.664062 220.277344 Z M 206.070312 337.496094 "/></clipPath><clipPath id="79cd865aab"><path d="M 206.070312 337.496094 L 83.574219 239.691406 L 177.167969 122.472656 L 299.664062 220.277344 Z M 206.070312 337.496094 "/></clipPath><clipPath id="9a19b7fad1"><path d="M 206.070312 337.496094 L 83.574219 239.691406 L 177.167969 122.472656 L 299.664062 220.277344 Z M 206.070312 337.496094 "/></clipPath><clipPath id="77cebc9d86"><path d="M 291 219 L 300 219 L 300 223 L 291 223 Z M 291 219 "/></clipPath><clipPath id="6bf3f3986f"><path d="M 206.070312 337.496094 L 83.574219 239.691406 L 177.167969 122.472656 L 299.664062 220.277344 Z M 206.070312 337.496094 "/></clipPath><clipPath id="ebff2154f6"><path d="M 206.070312 337.496094 L 83.574219 239.691406 L 177.167969 122.472656 L 299.664062 220.277344 Z M 206.070312 337.496094 "/></clipPath><clipPath id="f6fee82040"><path d="M 206.070312 337.496094 L 83.574219 239.691406 L 177.167969 122.472656 L 299.664062 220.277344 Z M 206.070312 337.496094 "/></clipPath><clipPath id="7813c82ad5"><path d="M 127 225 L 131 225 L 131 244 L 127 244 Z M 127 225 "/></clipPath><clipPath id="67b3c07833"><path d="M 206.070312 337.496094 L 83.574219 239.691406 L 177.167969 122.472656 L 299.664062 220.277344 Z M 206.070312 337.496094 "/></clipPath><clipPath id="4161515bee"><path d="M 206.070312 337.496094 L 83.574219 239.691406 L 177.167969 122.472656 L 299.664062 220.277344 Z M 206.070312 337.496094 "/></clipPath><clipPath id="a4488d1dfd"><path d="M 206.070312 337.496094 L 83.574219 239.691406 L 177.167969 122.472656 L 299.664062 220.277344 Z M 206.070312 337.496094 "/></clipPath><clipPath id="0f1cb52151"><path d="M 113 226 L 125 226 L 125 245 L 113 245 Z M 113 226 "/></clipPath><clipPath id="524825e79b"><path d="M 206.070312 337.496094 L 83.574219 239.691406 L 177.167969 122.472656 L 299.664062 220.277344 Z M 206.070312 337.496094 "/></clipPath><clipPath id="baab9338bb"><path d="M 206.070312 337.496094 L 83.574219 239.691406 L 177.167969 122.472656 L 299.664062 220.277344 Z M 206.070312 337.496094 "/></clipPath><clipPath id="696628fd75"><path d="M 206.070312 337.496094 L 83.574219 239.691406 L 177.167969 122.472656 L 299.664062 220.277344 Z M 206.070312 337.496094 "/></clipPath><clipPath id="e6164b77df"><path d="M 108 227 L 115 227 L 115 245 L 108 245 Z M 108 227 "/></clipPath><clipPath id="3cae7594b3"><path d="M 206.070312 337.496094 L 83.574219 239.691406 L 177.167969 122.472656 L 299.664062 220.277344 Z M 206.070312 337.496094 "/></clipPath><clipPath id="9131d7f7b8"><path d="M 206.070312 337.496094 L 83.574219 239.691406 L 177.167969 122.472656 L 299.664062 220.277344 Z M 206.070312 337.496094 "/></clipPath><clipPath id="511aa2c66f"><path d="M 206.070312 337.496094 L 83.574219 239.691406 L 177.167969 122.472656 L 299.664062 220.277344 Z M 206.070312 337.496094 "/></clipPath><clipPath id="603ad4f56a"><path d="M 102 227 L 110 227 L 110 245 L 102 245 Z M 102 227 "/></clipPath><clipPath id="e0596e34b4"><path d="M 206.070312 337.496094 L 83.574219 239.691406 L 177.167969 122.472656 L 299.664062 220.277344 Z M 206.070312 337.496094 "/></clipPath><clipPath id="d6eb05ca7b"><path d="M 206.070312 337.496094 L 83.574219 239.691406 L 177.167969 122.472656 L 299.664062 220.277344 Z M 206.070312 337.496094 "/></clipPath><clipPath id="45eab32bae"><path d="M 206.070312 337.496094 L 83.574219 239.691406 L 177.167969 122.472656 L 299.664062 220.277344 Z M 206.070312 337.496094 "/></clipPath><clipPath id="fc62966364"><path d="M 90 229 L 103 229 L 103 247 L 90 247 Z M 90 229 "/></clipPath><clipPath id="a490e6983a"><path d="M 206.070312 337.496094 L 83.574219 239.691406 L 177.167969 122.472656 L 299.664062 220.277344 Z M 206.070312 337.496094 "/></clipPath><clipPath id="accd7a660b"><path d="M 206.070312 337.496094 L 83.574219 239.691406 L 177.167969 122.472656 L 299.664062 220.277344 Z M 206.070312 337.496094 "/></clipPath><clipPath id="3e8f10381a"><path d="M 206.070312 337.496094 L 83.574219 239.691406 L 177.167969 122.472656 L 299.664062 220.277344 Z M 206.070312 337.496094 "/></clipPath></defs><g id="e1fcc873e5"><g style="fill:#9f684e;fill-opacity:1;"><g transform="translate(114.163918, 210.936286)"><path style="stroke:none" d="M 48.515625 -50.859375 C 48.671875 -50.160156 48.769531 -49.457031 48.8125 -48.75 C 48.851562 -48.050781 48.875 -47.3125 48.875 -46.53125 C 48.875 -45.90625 48.851562 -45.257812 48.8125 -44.59375 C 48.769531 -43.925781 48.710938 -43.242188 48.640625 -42.546875 C 48.484375 -39.890625 48.109375 -37.234375 47.515625 -34.578125 C 46.929688 -31.921875 46.132812 -29.300781 45.125 -26.71875 C 44.03125 -24.144531 42.757812 -21.6875 41.3125 -19.34375 C 39.863281 -17 38.164062 -14.8125 36.21875 -12.78125 C 32.3125 -8.5625 27.78125 -5.316406 22.625 -3.046875 C 21.0625 -2.347656 19.378906 -1.765625 17.578125 -1.296875 L 17.578125 -1.0625 L 17 -1.0625 C 13.40625 -0.113281 9.8125 0.359375 6.21875 0.359375 L 6.21875 -7.03125 L 4.6875 -80.515625 L 5.046875 -80.515625 L 4.921875 -80.984375 C 7.578125 -81.609375 10.332031 -82 13.1875 -82.15625 C 16.039062 -82.3125 18.910156 -82.078125 21.796875 -81.453125 C 24.691406 -80.828125 27.425781 -79.847656 30 -78.515625 C 32.65625 -77.191406 35.039062 -75.515625 37.15625 -73.484375 C 39.34375 -71.453125 41.21875 -69.222656 42.78125 -66.796875 C 44.34375 -64.378906 45.59375 -61.84375 46.53125 -59.1875 C 47.539062 -56.53125 48.203125 -53.753906 48.515625 -50.859375 Z M 37.5 -43.359375 C 37.5 -43.910156 37.519531 -44.457031 37.5625 -45 C 37.601562 -45.550781 37.625 -46.097656 37.625 -46.640625 C 37.625 -47.109375 37.601562 -47.578125 37.5625 -48.046875 C 37.519531 -48.515625 37.460938 -48.984375 37.390625 -49.453125 C 37.148438 -51.484375 36.679688 -53.4375 35.984375 -55.3125 C 34.492188 -59.300781 32.34375 -62.582031 29.53125 -65.15625 C 26.644531 -67.894531 23.285156 -69.65625 19.453125 -70.4375 C 18.441406 -70.664062 17.347656 -70.78125 16.171875 -70.78125 L 17.34375 -13.125 C 17.5 -13.125 17.632812 -13.144531 17.75 -13.1875 C 17.875 -13.226562 17.972656 -13.285156 18.046875 -13.359375 C 21.796875 -15.003906 25.117188 -17.390625 28.015625 -20.515625 C 30.828125 -23.484375 33.050781 -26.957031 34.6875 -30.9375 C 36.25 -34.84375 37.1875 -38.984375 37.5 -43.359375 Z M 37.5 -43.359375 "/></g></g><g style="fill:#9f684e;fill-opacity:1;"><g transform="translate(163.491545, 210.936286)"><path style="stroke:none" d="M 65.15625 -1.640625 L 54.140625 0.125 C 52.660156 -8.789062 51.3125 -17.703125 50.09375 -26.609375 C 48.882812 -35.515625 47.734375 -44.457031 46.640625 -53.4375 C 46.566406 -53.363281 46.507812 -53.265625 46.46875 -53.140625 C 46.425781 -53.023438 46.40625 -52.890625 46.40625 -52.734375 C 45.863281 -50.628906 45.316406 -48.484375 44.765625 -46.296875 C 44.222656 -44.109375 43.71875 -41.878906 43.25 -39.609375 L 40.90625 -29.53125 C 40.664062 -28.4375 40.410156 -27.34375 40.140625 -26.25 C 39.867188 -25.15625 39.613281 -24.0625 39.375 -22.96875 C 39.144531 -21.875 38.890625 -20.78125 38.609375 -19.6875 C 38.335938 -18.59375 38.085938 -17.539062 37.859375 -16.53125 L 27.078125 -16.0625 L 25.078125 -21.921875 L 24.140625 -24.84375 L 23.203125 -27.78125 L 21.328125 -33.75 L 20.15625 -37.734375 L 18.40625 -43.71875 C 18.320312 -43.007812 18.28125 -42.285156 18.28125 -41.546875 C 18.28125 -40.804688 18.242188 -40.082031 18.171875 -39.375 C 17.929688 -33.363281 17.65625 -27.347656 17.34375 -21.328125 C 17.03125 -15.316406 16.601562 -9.265625 16.0625 -3.171875 L 4.8125 -4.21875 C 5.976562 -15.9375 6.695312 -27.8125 6.96875 -39.84375 C 7.25 -51.875 8.050781 -63.984375 9.375 -76.171875 L 20.390625 -77 C 21.484375 -73.007812 22.613281 -69.003906 23.78125 -64.984375 C 24.957031 -60.960938 26.132812 -56.957031 27.3125 -52.96875 L 30.9375 -41.015625 L 31.53125 -39.03125 L 32.234375 -42.1875 C 32.773438 -44.457031 33.316406 -46.703125 33.859375 -48.921875 C 34.410156 -51.148438 34.960938 -53.359375 35.515625 -55.546875 C 36.054688 -57.816406 36.640625 -60.0625 37.265625 -62.28125 C 37.890625 -64.507812 38.554688 -66.71875 39.265625 -68.90625 C 39.960938 -71.175781 40.679688 -73.421875 41.421875 -75.640625 C 42.171875 -77.867188 42.972656 -80.078125 43.828125 -82.265625 L 54.734375 -80.859375 C 56.210938 -67.578125 57.789062 -54.332031 59.46875 -41.125 C 61.15625 -27.925781 63.050781 -14.765625 65.15625 -1.640625 Z M 65.15625 -1.640625 "/></g></g><g style="fill:#9f684e;fill-opacity:1;"><g transform="translate(229.457329, 210.936286)"><path style="stroke:none" d="M 20.515625 -12.890625 C 23.085938 -12.816406 25.679688 -12.703125 28.296875 -12.546875 C 30.921875 -12.390625 33.519531 -12.15625 36.09375 -11.84375 L 34.8125 -0.59375 C 32.382812 -0.90625 29.941406 -1.140625 27.484375 -1.296875 C 25.023438 -1.453125 22.546875 -1.609375 20.046875 -1.765625 C 17.546875 -1.835938 15.023438 -1.910156 12.484375 -1.984375 C 9.941406 -2.066406 7.382812 -2.1875 4.8125 -2.34375 L 5.515625 -13.59375 C 5.515625 -13.59375 5.53125 -13.59375 5.5625 -13.59375 C 5.601562 -13.59375 5.625 -13.59375 5.625 -13.59375 C 5.863281 -18.363281 6.097656 -23.128906 6.328125 -27.890625 C 6.566406 -32.660156 6.800781 -37.425781 7.03125 -42.1875 C 7.425781 -48.832031 7.835938 -55.453125 8.265625 -62.046875 C 8.691406 -68.648438 9.179688 -75.273438 9.734375 -81.921875 L 20.984375 -80.984375 C 20.429688 -74.421875 19.941406 -67.859375 19.515625 -61.296875 C 19.085938 -54.734375 18.675781 -48.171875 18.28125 -41.609375 C 18.050781 -36.835938 17.816406 -32.085938 17.578125 -27.359375 C 17.347656 -22.640625 17.113281 -17.894531 16.875 -13.125 C 17.5 -13.050781 18.125 -13.015625 18.75 -13.015625 C 19.375 -13.015625 19.960938 -12.972656 20.515625 -12.890625 Z M 20.515625 -12.890625 "/></g></g><g clip-rule="nonzero" clip-path="url(#72d356dab3)"><g clip-rule="nonzero" clip-path="url(#ff003483d0)"><g clip-rule="nonzero" clip-path="url(#80ab0802d1)"><g clip-rule="nonzero" clip-path="url(#36651f6e8a)"><path style=" stroke:none;fill-rule:nonzero;fill:#000000;fill-opacity:1;" d="M 264 216.605469 C 264.292969 216.160156 264.292969 215.714844 264.03125 215.449219 C 263.898438 215.300781 263.90625 215.058594 263.921875 214.929688 C 263.9375 214.816406 263.898438 214.703125 263.8125 214.628906 C 263.8125 214.621094 263.804688 214.617188 263.800781 214.613281 C 263.722656 214.550781 263.613281 214.523438 263.515625 214.546875 C 259.921875 215.339844 240.316406 217.84375 237.617188 217.933594 C 227.382812 218.214844 217.164062 218.769531 207.253906 219.574219 C 199.125 220.230469 190.867188 221.039062 182.894531 221.816406 C 178.566406 222.234375 174.25 222.660156 169.929688 223.0625 C 164.285156 223.585938 157.722656 224.175781 151.253906 224.605469 C 149.515625 224.722656 147.714844 224.777344 145.964844 224.835938 C 142.664062 224.9375 139.246094 225.050781 135.984375 225.574219 C 135.820312 225.597656 135.699219 225.734375 135.695312 225.898438 C 135.683594 226.546875 135.710938 227.191406 135.792969 227.804688 C 135.816406 227.992188 135.984375 228.125 136.167969 228.097656 C 146.199219 226.871094 155.882812 226.199219 166.128906 225.484375 L 171.023438 225.140625 C 173.3125 224.980469 175.648438 224.769531 177.902344 224.558594 C 182.035156 224.183594 186.304688 223.792969 190.507812 223.710938 C 192.296875 223.671875 194.117188 223.710938 195.878906 223.746094 C 199.609375 223.824219 203.464844 223.898438 207.273438 223.292969 C 213.964844 222.234375 220.71875 221.765625 227.257812 221.308594 C 231.003906 221.046875 234.878906 220.777344 238.714844 220.402344 C 240.691406 220.207031 242.6875 220.035156 244.691406 219.863281 C 250.484375 219.363281 256.476562 218.847656 262.1875 217.742188 C 262.296875 217.71875 262.390625 217.636719 262.433594 217.53125 C 262.523438 217.289062 262.71875 217.160156 263.003906 217.140625 C 263.363281 217.109375 263.710938 217.046875 264 216.605469 "/></g></g></g></g><g clip-rule="nonzero" clip-path="url(#751d100d13)"><g clip-rule="nonzero" clip-path="url(#64486a9cfb)"><g clip-rule="nonzero" clip-path="url(#2986259e3e)"><g clip-rule="nonzero" clip-path="url(#a4f289047f)"><path style=" stroke:none;fill-rule:nonzero;fill:#000000;fill-opacity:1;" d="M 136.359375 232.816406 C 136.386719 233.566406 136.417969 234.335938 136.503906 235.109375 C 136.554688 235.503906 136.59375 235.949219 136.617188 236.507812 C 136.625 236.601562 136.667969 236.691406 136.738281 236.753906 C 136.738281 236.753906 136.742188 236.757812 136.742188 236.757812 C 136.8125 236.8125 136.910156 236.835938 137.007812 236.824219 C 141.941406 236.082031 146.964844 235.855469 151.824219 235.636719 C 156.535156 235.421875 161.410156 235.203125 166.199219 234.519531 C 177.722656 232.847656 188.914062 231.800781 200.402344 231.3125 C 211.804688 230.816406 223.335938 229.730469 234.484375 228.675781 C 243.765625 227.800781 253.367188 226.898438 262.824219 226.339844 C 262.90625 226.339844 262.980469 226.304688 263.039062 226.25 C 263.078125 226.210938 263.113281 226.171875 263.148438 226.128906 C 263.171875 226.097656 263.199219 226.0625 263.214844 226.054688 C 264.683594 225.046875 265.507812 223.808594 265.664062 222.378906 C 265.773438 221.4375 264.753906 220.375 263.722656 219.550781 C 263.574219 219.429688 263.425781 219.320312 263.28125 219.210938 C 263.207031 219.152344 263.105469 219.132812 263.011719 219.148438 C 255.574219 220.667969 247.664062 221.242188 240.015625 221.800781 L 237.757812 221.96875 C 235.136719 222.164062 232.453125 222.273438 229.859375 222.382812 C 227.328125 222.488281 224.703125 222.59375 222.117188 222.785156 C 218.988281 223.007812 215.859375 223.523438 212.839844 224.023438 C 210.472656 224.410156 208.023438 224.816406 205.601562 225.078125 C 202.183594 225.445312 198.699219 225.386719 195.328125 225.324219 C 192.542969 225.277344 189.664062 225.226562 186.8125 225.414062 C 184.359375 225.582031 181.875 225.808594 179.472656 226.015625 C 176.144531 226.316406 172.703125 226.617188 169.3125 226.792969 C 158.207031 227.34375 147.453125 228.269531 136.4375 229.625 C 136.347656 229.632812 136.261719 229.679688 136.210938 229.753906 C 136.152344 229.828125 136.132812 229.921875 136.144531 230.015625 C 136.285156 230.941406 136.320312 231.894531 136.359375 232.816406 "/></g></g></g></g><g clip-rule="nonzero" clip-path="url(#aafb86b8c2)"><g clip-rule="nonzero" clip-path="url(#ac07cc3f9b)"><g clip-rule="nonzero" clip-path="url(#ffba24d111)"><g clip-rule="nonzero" clip-path="url(#3b1d3a94f5)"><path style=" stroke:none;fill-rule:nonzero;fill:#000000;fill-opacity:1;" d="M 135.8125 241.800781 C 135.773438 241.246094 135.730469 240.679688 135.539062 240.101562 C 135.097656 238.734375 135.015625 236.90625 134.96875 235.304688 C 134.90625 233.257812 134.734375 231.296875 134.441406 229.117188 L 134.363281 228.578125 C 134.246094 227.683594 134.128906 226.84375 134.140625 225.980469 C 134.144531 225.8125 133.972656 225.726562 133.878906 225.546875 C 133.859375 225.503906 133.824219 225.472656 133.789062 225.441406 C 133.742188 225.40625 133.695312 225.378906 133.632812 225.371094 C 133.050781 225.28125 132.316406 225.300781 131.332031 225.4375 C 131.171875 225.460938 131.046875 225.597656 131.039062 225.761719 C 131.007812 226.660156 130.925781 227.582031 130.847656 228.460938 C 130.660156 230.566406 130.46875 232.746094 130.890625 234.917969 C 130.890625 234.921875 130.890625 234.921875 130.890625 234.921875 C 131.167969 236.316406 131.34375 237.753906 131.515625 239.148438 C 131.640625 240.179688 131.773438 241.242188 131.945312 242.28125 C 131.972656 242.445312 132.113281 242.566406 132.277344 242.566406 C 133.148438 242.570312 134.257812 242.78125 135.234375 242.964844 L 135.496094 243.015625 C 135.601562 243.035156 135.714844 243.003906 135.796875 242.925781 C 135.871094 242.847656 135.914062 242.738281 135.894531 242.628906 C 135.855469 242.359375 135.835938 242.078125 135.8125 241.800781 "/></g></g></g></g><g clip-rule="nonzero" clip-path="url(#a0272a3434)"><g clip-rule="nonzero" clip-path="url(#673462da44)"><g clip-rule="nonzero" clip-path="url(#2744baaaa0)"><g clip-rule="nonzero" clip-path="url(#0244e50dda)"><path style=" stroke:none;fill-rule:nonzero;fill:#000000;fill-opacity:1;" d="M 290.5625 221.855469 C 290.523438 221.640625 290.484375 221.417969 290.421875 221.207031 C 290.269531 220.640625 290.332031 220.246094 290.5 219.789062 C 290.53125 219.699219 290.523438 219.589844 290.472656 219.507812 C 290.449219 219.46875 290.425781 219.433594 290.390625 219.40625 C 290.347656 219.375 290.292969 219.351562 290.238281 219.339844 C 288.101562 218.941406 285.808594 218.539062 283.3125 218.367188 L 281.386719 218.238281 C 278.417969 218.042969 275.347656 217.832031 272.308594 217.699219 C 270.527344 217.617188 269.132812 217.179688 267.660156 216.71875 C 267.160156 216.5625 266.652344 216.398438 266.113281 216.25 C 266.027344 216.226562 265.933594 216.234375 265.855469 216.285156 C 265.777344 216.332031 265.714844 216.40625 265.695312 216.492188 C 265.609375 216.839844 265.464844 217.171875 265.28125 217.433594 C 265.148438 217.644531 264.992188 217.820312 264.800781 218 C 264.730469 218.066406 264.6875 218.160156 264.691406 218.257812 C 264.691406 218.363281 264.738281 218.453125 264.820312 218.515625 C 266.660156 219.988281 267.535156 221.019531 267.183594 222.570312 C 266.792969 224.3125 266.132812 225.578125 265.117188 226.554688 C 265.046875 226.621094 265.011719 226.722656 265.011719 226.820312 C 265.019531 227.007812 265.207031 227.121094 265.34375 227.238281 C 265.417969 227.304688 265.492188 227.371094 265.625 227.476562 C 266.179688 227.933594 266.707031 228.375 266.90625 228.988281 C 267 229.289062 267.003906 229.582031 266.925781 229.890625 C 266.894531 230.007812 266.933594 230.128906 267.015625 230.210938 C 267.097656 230.296875 267.21875 230.332031 267.328125 230.304688 C 267.664062 230.234375 268 230.164062 268.335938 230.089844 C 269.613281 229.820312 270.9375 229.539062 272.191406 229.050781 C 275.59375 227.761719 279.148438 226.757812 282.597656 225.792969 C 283.414062 225.5625 284.226562 225.335938 285.042969 225.105469 C 286.910156 224.566406 288.792969 224.015625 290.679688 223.457031 C 290.78125 223.425781 290.859375 223.355469 290.898438 223.261719 C 290.941406 223.167969 290.933594 223.0625 290.882812 222.972656 C 290.714844 222.648438 290.640625 222.265625 290.5625 221.855469 "/></g></g></g></g><g clip-rule="nonzero" clip-path="url(#70b515f040)"><g clip-rule="nonzero" clip-path="url(#9ff9750cee)"><g clip-rule="nonzero" clip-path="url(#e7c108a04a)"><g clip-rule="nonzero" clip-path="url(#9b62db8a89)"><path style=" stroke:none;fill-rule:nonzero;fill:#000000;fill-opacity:1;" d="M 126.796875 242.371094 C 126.78125 242.277344 126.761719 242.183594 126.753906 242.089844 C 126.5625 240.640625 126.578125 239.152344 126.585938 237.710938 C 126.59375 236.746094 126.609375 235.75 126.554688 234.773438 C 126.515625 233.863281 126.511719 232.90625 126.503906 231.988281 C 126.5 230.183594 126.492188 228.3125 126.21875 226.554688 C 126.207031 226.46875 126.160156 226.390625 126.097656 226.339844 C 126.0625 226.3125 126.03125 226.296875 126 226.285156 C 125.882812 226.242188 125.75 226.265625 125.660156 226.351562 C 125.597656 226.402344 125.507812 226.414062 125.367188 226.421875 C 125.15625 226.4375 124.8125 226.460938 124.613281 226.832031 C 124.25 227.515625 124.523438 228.378906 124.761719 229.140625 C 124.867188 229.46875 124.964844 229.777344 124.992188 230.019531 C 124.992188 230.023438 124.992188 230.023438 124.996094 230.027344 C 125.152344 231.214844 125.019531 232.566406 124.882812 233.871094 L 124.808594 234.671875 C 124.640625 236.4375 124.613281 238.160156 124.71875 240.085938 C 124.726562 240.304688 124.726562 240.539062 124.722656 240.78125 C 124.714844 241.40625 124.707031 242.128906 124.988281 242.730469 C 125.09375 242.964844 125.378906 243.589844 126.019531 243.640625 C 126.316406 243.652344 126.546875 243.570312 126.691406 243.402344 C 126.941406 243.117188 126.863281 242.722656 126.796875 242.371094 "/></g></g></g></g><g clip-rule="nonzero" clip-path="url(#ae92786018)"><g clip-rule="nonzero" clip-path="url(#64ce9e310c)"><g clip-rule="nonzero" clip-path="url(#79cd865aab)"><g clip-rule="nonzero" clip-path="url(#9a19b7fad1)"><path style=" stroke:none;fill-rule:nonzero;fill:#000000;fill-opacity:1;" d="M 265.222656 229.90625 C 265.273438 229.839844 265.308594 229.800781 265.328125 229.773438 C 265.390625 229.703125 265.457031 229.558594 265.441406 229.457031 C 265.429688 229.359375 265.339844 229.25 265.261719 229.199219 L 265.234375 229.175781 C 265.230469 229.175781 265.230469 229.175781 265.226562 229.171875 C 265.109375 229.0625 264.984375 228.949219 264.855469 228.828125 C 264.628906 228.609375 264.375 228.375 264.109375 228.164062 C 263.992188 228.070312 263.875 227.980469 263.75 227.898438 C 263.6875 227.859375 263.621094 227.839844 263.550781 227.84375 C 254.128906 228.382812 244.585938 229.300781 235.347656 230.1875 C 223.984375 231.28125 212.234375 232.410156 200.617188 232.84375 C 198.929688 232.902344 197.238281 232.945312 195.542969 232.992188 C 191.003906 233.105469 186.308594 233.21875 181.734375 233.726562 C 178.820312 234.050781 175.890625 234.542969 173.050781 235.007812 C 170.230469 235.480469 167.316406 235.96875 164.421875 236.285156 C 160.417969 236.730469 156.355469 236.925781 152.421875 237.113281 C 147.417969 237.351562 142.242188 237.59375 137.132812 238.363281 C 137.039062 238.378906 136.957031 238.429688 136.90625 238.503906 C 136.851562 238.578125 136.832031 238.667969 136.847656 238.761719 C 136.929688 239.210938 137.03125 239.644531 137.164062 240.101562 C 137.261719 240.371094 137.261719 240.75 137.265625 241.15625 C 137.265625 241.351562 137.265625 241.546875 137.273438 241.738281 C 137.28125 241.832031 137.320312 241.917969 137.390625 241.976562 C 137.433594 242.023438 137.546875 242.066406 137.636719 242.058594 C 140.875 241.820312 144.175781 241.617188 147.367188 241.421875 C 154.5625 240.976562 162 240.515625 169.277344 239.597656 C 177.535156 238.570312 185.898438 238.265625 193.984375 237.976562 C 197.554688 237.84375 201.242188 237.710938 204.894531 237.515625 C 215.660156 236.929688 227.390625 235.816406 241.820312 234.019531 C 246.269531 233.472656 250.773438 233.039062 255.128906 232.617188 C 257.886719 232.351562 260.636719 232.089844 263.398438 231.792969 C 263.496094 231.78125 263.585938 231.726562 263.644531 231.644531 C 263.738281 231.503906 263.839844 231.410156 263.992188 231.34375 C 264.070312 231.316406 264.144531 231.292969 264.214844 231.25 C 264.253906 231.226562 264.285156 231.199219 264.316406 231.160156 C 264.449219 230.976562 264.582031 230.796875 264.707031 230.613281 C 264.871094 230.375 265.035156 230.144531 265.222656 229.90625 "/></g></g></g></g><g clip-rule="nonzero" clip-path="url(#77cebc9d86)"><g clip-rule="nonzero" clip-path="url(#6bf3f3986f)"><g clip-rule="nonzero" clip-path="url(#ebff2154f6)"><g clip-rule="nonzero" clip-path="url(#f6fee82040)"><path style=" stroke:none;fill-rule:nonzero;fill:#000000;fill-opacity:1;" d="M 299.15625 220.234375 C 299.101562 220.191406 299.027344 220.167969 298.953125 220.164062 C 298.472656 220.152344 297.988281 220.148438 297.511719 220.140625 C 296.050781 220.125 294.671875 220.109375 293.523438 219.917969 C 293.28125 219.878906 293.035156 219.835938 292.792969 219.789062 L 292.464844 219.734375 C 292.324219 219.707031 292.148438 219.832031 292.078125 219.953125 C 291.925781 220.226562 291.832031 220.394531 291.851562 220.613281 L 291.878906 220.730469 C 291.929688 220.941406 291.976562 221.136719 292.019531 221.339844 C 292.015625 221.34375 292.019531 221.347656 292.019531 221.347656 C 292.035156 221.421875 292.042969 221.496094 292.054688 221.574219 C 292.09375 221.839844 292.144531 222.179688 292.390625 222.445312 C 292.40625 222.457031 292.414062 222.476562 292.4375 222.53125 C 292.441406 222.539062 292.472656 222.609375 292.472656 222.617188 C 292.542969 222.769531 292.714844 222.847656 292.878906 222.800781 C 295.085938 222.136719 297.105469 221.484375 299.050781 220.824219 C 299.207031 220.773438 299.304688 220.613281 299.28125 220.453125 C 299.265625 220.367188 299.21875 220.289062 299.15625 220.234375 "/></g></g></g></g><g clip-rule="nonzero" clip-path="url(#7813c82ad5)"><g clip-rule="nonzero" clip-path="url(#67b3c07833)"><g clip-rule="nonzero" clip-path="url(#4161515bee)"><g clip-rule="nonzero" clip-path="url(#a4488d1dfd)"><path style=" stroke:none;fill-rule:nonzero;fill:#000000;fill-opacity:1;" d="M 129.765625 238.167969 C 129.703125 237.507812 129.5625 236.824219 129.429688 236.164062 C 129.261719 235.335938 129.089844 234.480469 129.074219 233.691406 C 129.03125 232.039062 129.164062 230.375 129.292969 228.765625 C 129.359375 227.898438 129.429688 227.046875 129.476562 226.183594 C 129.480469 226.085938 129.4375 225.984375 129.371094 225.917969 C 129.359375 225.910156 129.355469 225.90625 129.347656 225.898438 C 129.277344 225.84375 129.183594 225.816406 129.09375 225.824219 C 129.046875 225.835938 128.996094 225.839844 128.945312 225.851562 C 128.898438 225.859375 128.855469 225.871094 128.75 225.875 C 128.503906 225.925781 128.273438 225.964844 128.039062 226 C 127.863281 226.023438 127.738281 226.183594 127.753906 226.359375 C 127.953125 229.316406 128.070312 232.074219 128.097656 234.550781 C 128.101562 235.285156 128.074219 236.023438 128.054688 236.757812 C 127.988281 238.816406 127.917969 240.949219 128.457031 243.050781 C 128.503906 243.21875 128.65625 243.324219 128.828125 243.304688 C 129.3125 243.25 129.792969 243.183594 130.179688 243.109375 C 130.363281 243.070312 130.480469 242.898438 130.449219 242.71875 C 130.148438 241.046875 129.917969 239.632812 129.765625 238.167969 "/></g></g></g></g><g clip-rule="nonzero" clip-path="url(#0f1cb52151)"><g clip-rule="nonzero" clip-path="url(#524825e79b)"><g clip-rule="nonzero" clip-path="url(#baab9338bb)"><g clip-rule="nonzero" clip-path="url(#696628fd75)"><path style=" stroke:none;fill-rule:nonzero;fill:#000000;fill-opacity:1;" d="M 122.371094 242.683594 C 121.601562 242.820312 120.640625 242.769531 119.859375 242.722656 C 119.242188 242.714844 118.613281 242.617188 117.929688 242.445312 C 117.394531 242.308594 117.214844 241.785156 117.320312 241.367188 C 117.351562 241.222656 117.515625 240.753906 118.082031 240.894531 C 118.699219 241.054688 119.429688 241.222656 120.171875 241.203125 C 120.347656 241.203125 120.542969 241.207031 120.726562 241.214844 C 121.234375 241.214844 121.753906 241.226562 122.25 241.132812 C 122.851562 241.027344 122.992188 241.519531 123.023438 241.679688 C 123.082031 242.019531 122.964844 242.570312 122.371094 242.683594 Z M 116.136719 238.585938 C 116.179688 238.199219 116.46875 237.804688 116.992188 237.863281 C 118.09375 237.988281 119.226562 238.007812 120.320312 238.03125 C 120.792969 238.039062 121.265625 238.046875 121.730469 238.066406 C 121.917969 238.074219 122.058594 238.191406 122.136719 238.289062 C 122.289062 238.472656 122.371094 238.722656 122.339844 238.9375 C 122.269531 239.441406 121.824219 239.601562 121.421875 239.585938 C 120.992188 239.570312 120.5625 239.566406 120.132812 239.558594 C 119.015625 239.535156 117.859375 239.515625 116.746094 239.402344 C 116.230469 239.335938 116.097656 238.921875 116.136719 238.585938 Z M 115.660156 236.503906 C 115.601562 236.457031 115.558594 236.402344 115.523438 236.351562 C 115.351562 236.105469 115.316406 235.753906 115.4375 235.488281 C 115.539062 235.269531 115.738281 235.136719 116.015625 235.113281 C 116.71875 235.042969 117.410156 235.066406 118.136719 235.09375 L 118.621094 235.109375 C 118.917969 235.128906 119.210938 235.125 119.507812 235.128906 C 120.058594 235.128906 120.578125 235.128906 121.105469 235.222656 C 121.339844 235.269531 121.515625 235.378906 121.621094 235.5625 C 121.71875 235.726562 121.753906 235.945312 121.714844 236.152344 C 121.679688 236.355469 121.585938 236.523438 121.445312 236.636719 C 121.300781 236.753906 121.113281 236.792969 120.890625 236.757812 C 120.890625 236.757812 120.886719 236.753906 120.886719 236.753906 C 120.347656 236.664062 119.8125 236.660156 119.296875 236.660156 C 119.054688 236.65625 118.816406 236.65625 118.570312 236.644531 L 118.058594 236.628906 C 117.453125 236.613281 116.824219 236.59375 116.199219 236.644531 C 115.957031 236.667969 115.78125 236.597656 115.660156 236.503906 Z M 115.5 232.707031 C 115.363281 232.597656 115.265625 232.441406 115.238281 232.230469 C 115.214844 232.015625 115.308594 231.765625 115.46875 231.582031 C 115.542969 231.503906 115.695312 231.367188 115.894531 231.363281 C 116.347656 231.355469 116.820312 231.402344 117.273438 231.445312 C 118.265625 231.539062 119.292969 231.636719 120.316406 231.300781 C 120.679688 231.179688 120.9375 231.3125 121.078125 231.445312 C 121.308594 231.648438 121.425781 231.988281 121.371094 232.261719 C 121.328125 232.484375 121.171875 232.640625 120.917969 232.722656 C 120.011719 233.019531 119.230469 233.136719 118.460938 233.082031 C 118.144531 233.070312 117.835938 233.03125 117.519531 233 C 117.070312 232.945312 116.605469 232.894531 116.140625 232.910156 C 115.917969 232.910156 115.679688 232.847656 115.5 232.707031 Z M 116.320312 229.539062 C 116.203125 229.285156 116.242188 228.929688 116.421875 228.679688 C 116.535156 228.519531 116.746094 228.332031 117.128906 228.363281 C 117.128906 228.363281 117.128906 228.363281 117.132812 228.367188 L 117.519531 228.394531 C 118.046875 228.433594 118.589844 228.464844 119.058594 228.601562 C 119.304688 228.683594 119.644531 228.628906 120.066406 228.550781 L 120.253906 228.515625 C 120.550781 228.476562 120.785156 228.472656 121.011719 228.503906 C 121.53125 228.597656 121.695312 229.054688 121.621094 229.445312 C 121.585938 229.648438 121.492188 229.820312 121.363281 229.925781 C 121.210938 230.042969 121.023438 230.082031 120.808594 230.046875 C 120.546875 229.992188 120.261719 230.039062 120.015625 230.078125 C 119.9375 230.09375 119.867188 230.105469 119.808594 230.109375 C 119.480469 230.136719 119.175781 230.136719 118.859375 230.132812 L 118.789062 230.132812 C 118.449219 230.121094 118.101562 230.0625 117.738281 230 C 117.449219 229.953125 117.160156 229.90625 116.863281 229.878906 C 116.703125 229.867188 116.578125 229.820312 116.476562 229.742188 C 116.410156 229.6875 116.363281 229.621094 116.320312 229.539062 Z M 124.3125 241.550781 C 124.058594 238.777344 123.804688 236.15625 123.847656 233.382812 C 123.867188 231.804688 123.859375 230.097656 123.65625 228.367188 C 123.628906 228.132812 123.585938 227.902344 123.550781 227.675781 C 123.515625 227.464844 123.472656 227.253906 123.449219 227.039062 C 123.433594 226.953125 123.390625 226.875 123.324219 226.824219 C 123.316406 226.820312 123.3125 226.816406 123.3125 226.816406 C 123.242188 226.757812 123.148438 226.730469 123.0625 226.75 C 122.457031 226.835938 121.855469 226.894531 121.234375 226.957031 L 121.144531 226.964844 C 120.609375 227.007812 119.960938 226.953125 119.277344 226.894531 C 117.886719 226.777344 116.3125 226.640625 115.222656 227.347656 C 114.90625 227.550781 114.503906 227.578125 114.214844 227.566406 C 114.125 227.566406 114.03125 227.597656 113.96875 227.664062 C 113.902344 227.726562 113.863281 227.816406 113.863281 227.90625 C 113.855469 233.464844 114.585938 238.585938 116.152344 244.035156 C 116.199219 244.1875 116.34375 244.289062 116.503906 244.273438 C 118.816406 244.109375 121.304688 243.96875 123.785156 244.101562 C 123.984375 244.105469 124.132812 244.074219 124.265625 244.03125 C 124.425781 243.988281 124.527344 243.839844 124.511719 243.675781 C 124.449219 242.960938 124.382812 242.257812 124.3125 241.550781 "/></g></g></g></g><g clip-rule="nonzero" clip-path="url(#e6164b77df)"><g clip-rule="nonzero" clip-path="url(#3cae7594b3)"><g clip-rule="nonzero" clip-path="url(#9131d7f7b8)"><g clip-rule="nonzero" clip-path="url(#511aa2c66f)"><path style=" stroke:none;fill-rule:nonzero;fill:#000000;fill-opacity:1;" d="M 112.605469 235.089844 C 112.296875 232.667969 112.300781 230.355469 112.324219 228.003906 C 112.328125 227.902344 112.285156 227.808594 112.210938 227.742188 C 112.207031 227.738281 112.203125 227.738281 112.199219 227.734375 C 112.125 227.671875 112.03125 227.644531 111.941406 227.664062 C 110.988281 227.789062 109.941406 228.003906 109.609375 228.136719 C 109.261719 228.292969 108.796875 228.007812 108.667969 227.914062 C 108.566406 227.84375 108.4375 227.835938 108.332031 227.886719 C 108.21875 227.9375 108.148438 228.046875 108.136719 228.164062 C 108.015625 229.625 108.054688 231.027344 108.101562 232.519531 L 108.132812 233.644531 C 108.152344 234.71875 108.417969 235.71875 108.671875 236.691406 C 108.808594 237.195312 108.941406 237.699219 109.042969 238.21875 C 109.109375 238.578125 109.164062 239 109.222656 239.453125 C 109.429688 241.066406 109.691406 243.078125 110.671875 244.085938 C 110.78125 244.191406 110.835938 244.296875 110.878906 244.4375 C 110.925781 244.59375 111.070312 244.695312 111.230469 244.679688 C 112.242188 244.609375 113.242188 244.539062 114.253906 244.449219 C 114.351562 244.4375 114.445312 244.386719 114.5 244.300781 C 114.558594 244.21875 114.574219 244.113281 114.542969 244.015625 C 113.769531 241.253906 112.992188 238.265625 112.605469 235.089844 "/></g></g></g></g><g clip-rule="nonzero" clip-path="url(#603ad4f56a)"><g clip-rule="nonzero" clip-path="url(#e0596e34b4)"><g clip-rule="nonzero" clip-path="url(#d6eb05ca7b)"><g clip-rule="nonzero" clip-path="url(#45eab32bae)"><path style=" stroke:none;fill-rule:nonzero;fill:#000000;fill-opacity:1;" d="M 108.992188 244.292969 C 108.015625 242.667969 107.675781 240.550781 107.347656 238.507812 C 107.207031 237.640625 107.074219 236.820312 106.898438 236.0625 C 106.609375 234.8125 106.582031 233.582031 106.558594 232.273438 C 106.550781 231.804688 106.542969 231.335938 106.519531 230.867188 C 106.507812 230.519531 106.433594 230.167969 106.367188 229.828125 C 106.273438 229.394531 106.183594 228.976562 106.242188 228.605469 C 106.246094 228.542969 106.265625 228.484375 106.28125 228.421875 C 106.296875 228.347656 106.320312 228.269531 106.335938 228.1875 C 106.355469 228.074219 106.316406 227.953125 106.222656 227.871094 C 106.21875 227.871094 106.21875 227.871094 106.214844 227.867188 C 106.125 227.792969 106.007812 227.777344 105.902344 227.808594 C 105.199219 228.027344 104.371094 228.335938 103.449219 228.734375 C 103.328125 228.789062 103.246094 228.90625 103.242188 229.039062 C 103.234375 229.507812 103.207031 229.976562 103.175781 230.441406 C 103.136719 231.0625 103.101562 231.714844 103.105469 232.363281 C 103.117188 232.859375 103.03125 233.410156 102.941406 233.9375 L 102.910156 234.136719 C 102.796875 234.808594 102.867188 235.390625 102.933594 235.953125 C 102.964844 236.230469 103 236.511719 103.011719 236.8125 C 103.066406 238.457031 103.207031 240.261719 103.859375 242.3125 C 104.015625 242.796875 104.023438 243.339844 104.035156 243.914062 C 104.042969 244.082031 104.046875 244.25 104.050781 244.417969 C 104.058594 244.589844 104.191406 244.726562 104.367188 244.746094 C 105.804688 244.832031 107.226562 244.851562 108.710938 244.808594 C 108.832031 244.800781 108.941406 244.734375 108.996094 244.628906 C 109.054688 244.523438 109.054688 244.394531 108.992188 244.292969 "/></g></g></g></g><g clip-rule="nonzero" clip-path="url(#fc62966364)"><g clip-rule="nonzero" clip-path="url(#a490e6983a)"><g clip-rule="nonzero" clip-path="url(#accd7a660b)"><g clip-rule="nonzero" clip-path="url(#3e8f10381a)"><path style=" stroke:none;fill-rule:nonzero;fill:#000000;fill-opacity:1;" d="M 90.371094 232.003906 C 90.234375 232.828125 90.101562 233.683594 90.035156 234.515625 C 89.945312 235.734375 90.171875 237.003906 90.390625 238.226562 C 90.449219 238.523438 90.5 238.8125 90.542969 239.101562 L 90.660156 239.859375 C 90.828125 240.980469 91.007812 242.132812 91.277344 243.265625 C 91.347656 243.585938 91.4375 243.890625 91.523438 244.199219 C 91.660156 244.671875 91.789062 245.117188 91.84375 245.574219 C 91.863281 245.71875 91.980469 245.839844 92.117188 245.867188 C 93.976562 246.21875 96.597656 246.503906 98.53125 245.859375 C 99.429688 245.546875 100.351562 245.410156 101.335938 245.269531 C 101.628906 245.226562 101.917969 245.1875 102.207031 245.136719 C 102.296875 245.121094 102.382812 245.074219 102.433594 245 C 102.484375 244.925781 102.503906 244.832031 102.492188 244.746094 C 102.421875 244.351562 102.371094 243.957031 102.316406 243.5625 C 102.214844 242.808594 102.109375 242.03125 101.917969 241.246094 C 101.738281 240.53125 101.707031 239.777344 101.675781 239.054688 C 101.644531 238.371094 101.613281 237.660156 101.460938 236.964844 C 101.121094 235.371094 101.308594 233.765625 101.503906 232.066406 C 101.589844 231.335938 101.675781 230.582031 101.71875 229.832031 C 101.722656 229.722656 101.675781 229.617188 101.589844 229.550781 C 101.585938 229.546875 101.582031 229.542969 101.578125 229.539062 C 101.488281 229.472656 101.367188 229.457031 101.261719 229.496094 C 98.628906 230.472656 95.617188 230.585938 92.703125 230.699219 C 92.070312 230.726562 91.441406 230.753906 90.832031 230.785156 C 90.667969 230.796875 90.535156 230.914062 90.511719 231.078125 C 90.464844 231.382812 90.414062 231.691406 90.371094 232.003906 "/></g></g></g></g></g></svg>