<svg xmlns="http://www.w3.org/2000/svg" xmlns:xlink="http://www.w3.org/1999/xlink" width="40" zoomAndPan="magnify" viewBox="0 0 30 30.000001" height="40" preserveAspectRatio="xMidYMid meet" version="1.2"><defs><clipPath id="ec0fa43da5"><path d="M 8 19 L 24 19 L 24 22 L 8 22 Z M 8 19 "/></clipPath><clipPath id="0637a20bfb"><path d="M 16.695312 33.816406 L 2.515625 22.492188 L 13.386719 8.878906 L 27.566406 20.203125 Z M 16.695312 33.816406 "/></clipPath><clipPath id="356f8b3a7a"><path d="M 16.695312 33.816406 L 2.515625 22.492188 L 13.386719 8.878906 L 27.566406 20.203125 Z M 16.695312 33.816406 "/></clipPath><clipPath id="64d7572ffa"><path d="M 8 20 L 24 20 L 24 23 L 8 23 Z M 8 20 "/></clipPath><clipPath id="d45612691e"><path d="M 16.695312 33.816406 L 2.515625 22.492188 L 13.386719 8.878906 L 27.566406 20.203125 Z M 16.695312 33.816406 "/></clipPath><clipPath id="ac5c271726"><path d="M 16.695312 33.816406 L 2.515625 22.492188 L 13.386719 8.878906 L 27.566406 20.203125 Z M 16.695312 33.816406 "/></clipPath><clipPath id="6ef6f19632"><path d="M 7 20 L 9 20 L 9 23 L 7 23 Z M 7 20 "/></clipPath><clipPath id="b6fa03590b"><path d="M 16.695312 33.816406 L 2.515625 22.492188 L 13.386719 8.878906 L 27.566406 20.203125 Z M 16.695312 33.816406 "/></clipPath><clipPath id="a1fcf671e2"><path d="M 16.695312 33.816406 L 2.515625 22.492188 L 13.386719 8.878906 L 27.566406 20.203125 Z M 16.695312 33.816406 "/></clipPath><clipPath id="043a05c280"><path d="M 23 19 L 27 19 L 27 22 L 23 22 Z M 23 19 "/></clipPath><clipPath id="7666f21882"><path d="M 16.695312 33.816406 L 2.515625 22.492188 L 13.386719 8.878906 L 27.566406 20.203125 Z M 16.695312 33.816406 "/></clipPath><clipPath id="50ac7f318a"><path d="M 16.695312 33.816406 L 2.515625 22.492188 L 13.386719 8.878906 L 27.566406 20.203125 Z M 16.695312 33.816406 "/></clipPath><clipPath id="d7f1b22e86"><path d="M 7 20 L 8 20 L 8 23 L 7 23 Z M 7 20 "/></clipPath><clipPath id="e09475c083"><path d="M 16.695312 33.816406 L 2.515625 22.492188 L 13.386719 8.878906 L 27.566406 20.203125 Z M 16.695312 33.816406 "/></clipPath><clipPath id="c2aa9a4c83"><path d="M 16.695312 33.816406 L 2.515625 22.492188 L 13.386719 8.878906 L 27.566406 20.203125 Z M 16.695312 33.816406 "/></clipPath><clipPath id="d2f1a59b09"><path d="M 8 21 L 24 21 L 24 23 L 8 23 Z M 8 21 "/></clipPath><clipPath id="c6a92cf92b"><path d="M 16.695312 33.816406 L 2.515625 22.492188 L 13.386719 8.878906 L 27.566406 20.203125 Z M 16.695312 33.816406 "/></clipPath><clipPath id="ee32260810"><path d="M 16.695312 33.816406 L 2.515625 22.492188 L 13.386719 8.878906 L 27.566406 20.203125 Z M 16.695312 33.816406 "/></clipPath><clipPath id="7473f59672"><path d="M 26 20 L 28 20 L 28 21 L 26 21 Z M 26 20 "/></clipPath><clipPath id="2470406317"><path d="M 16.695312 33.816406 L 2.515625 22.492188 L 13.386719 8.878906 L 27.566406 20.203125 Z M 16.695312 33.816406 "/></clipPath><clipPath id="58d49e2919"><path d="M 16.695312 33.816406 L 2.515625 22.492188 L 13.386719 8.878906 L 27.566406 20.203125 Z M 16.695312 33.816406 "/></clipPath><clipPath id="25364aa522"><path d="M 7 20 L 8 20 L 8 23 L 7 23 Z M 7 20 "/></clipPath><clipPath id="05e5e4688b"><path d="M 16.695312 33.816406 L 2.515625 22.492188 L 13.386719 8.878906 L 27.566406 20.203125 Z M 16.695312 33.816406 "/></clipPath><clipPath id="b7cb663a55"><path d="M 16.695312 33.816406 L 2.515625 22.492188 L 13.386719 8.878906 L 27.566406 20.203125 Z M 16.695312 33.816406 "/></clipPath><clipPath id="b6f1f126af"><path d="M 6 20 L 8 20 L 8 24 L 6 24 Z M 6 20 "/></clipPath><clipPath id="efa3517466"><path d="M 16.695312 33.816406 L 2.515625 22.492188 L 13.386719 8.878906 L 27.566406 20.203125 Z M 16.695312 33.816406 "/></clipPath><clipPath id="45f6e013df"><path d="M 16.695312 33.816406 L 2.515625 22.492188 L 13.386719 8.878906 L 27.566406 20.203125 Z M 16.695312 33.816406 "/></clipPath><clipPath id="67b7bea578"><path d="M 5 21 L 7 21 L 7 24 L 5 24 Z M 5 21 "/></clipPath><clipPath id="3c0d6de201"><path d="M 16.695312 33.816406 L 2.515625 22.492188 L 13.386719 8.878906 L 27.566406 20.203125 Z M 16.695312 33.816406 "/></clipPath><clipPath id="eb81ccc163"><path d="M 16.695312 33.816406 L 2.515625 22.492188 L 13.386719 8.878906 L 27.566406 20.203125 Z M 16.695312 33.816406 "/></clipPath><clipPath id="2c56977278"><path d="M 4 21 L 6 21 L 6 24 L 4 24 Z M 4 21 "/></clipPath><clipPath id="27a63101b8"><path d="M 16.695312 33.816406 L 2.515625 22.492188 L 13.386719 8.878906 L 27.566406 20.203125 Z M 16.695312 33.816406 "/></clipPath><clipPath id="6e55965efe"><path d="M 16.695312 33.816406 L 2.515625 22.492188 L 13.386719 8.878906 L 27.566406 20.203125 Z M 16.695312 33.816406 "/></clipPath><clipPath id="0a6174592e"><path d="M 3 21 L 5 21 L 5 24 L 3 24 Z M 3 21 "/></clipPath><clipPath id="a953cf09ca"><path d="M 16.695312 33.816406 L 2.515625 22.492188 L 13.386719 8.878906 L 27.566406 20.203125 Z M 16.695312 33.816406 "/></clipPath><clipPath id="4cbf116aa2"><path d="M 16.695312 33.816406 L 2.515625 22.492188 L 13.386719 8.878906 L 27.566406 20.203125 Z M 16.695312 33.816406 "/></clipPath></defs><g id="50ae315f9f"><g style="fill:#9f684e;fill-opacity:1;"><g transform="translate(5.935537, 19.000377)"><path style="stroke:none" d="M 5.671875 -5.953125 C 5.691406 -5.867188 5.703125 -5.785156 5.703125 -5.703125 C 5.710938 -5.617188 5.71875 -5.535156 5.71875 -5.453125 C 5.71875 -5.378906 5.710938 -5.300781 5.703125 -5.21875 C 5.703125 -5.144531 5.695312 -5.066406 5.6875 -4.984375 C 5.675781 -4.671875 5.632812 -4.359375 5.5625 -4.046875 C 5.488281 -3.734375 5.394531 -3.425781 5.28125 -3.125 C 5.15625 -2.820312 5.003906 -2.535156 4.828125 -2.265625 C 4.660156 -1.992188 4.460938 -1.738281 4.234375 -1.5 C 3.773438 -1 3.242188 -0.617188 2.640625 -0.359375 C 2.460938 -0.273438 2.269531 -0.207031 2.0625 -0.15625 L 2.0625 -0.125 L 1.984375 -0.125 C 1.566406 -0.0078125 1.148438 0.046875 0.734375 0.046875 L 0.734375 -0.828125 L 0.546875 -9.421875 L 0.59375 -9.421875 L 0.578125 -9.484375 C 0.890625 -9.554688 1.210938 -9.597656 1.546875 -9.609375 C 1.878906 -9.628906 2.210938 -9.601562 2.546875 -9.53125 C 2.890625 -9.457031 3.210938 -9.34375 3.515625 -9.1875 C 3.828125 -9.03125 4.101562 -8.835938 4.34375 -8.609375 C 4.601562 -8.367188 4.820312 -8.101562 5 -7.8125 C 5.1875 -7.53125 5.335938 -7.234375 5.453125 -6.921875 C 5.566406 -6.617188 5.640625 -6.296875 5.671875 -5.953125 Z M 4.390625 -5.078125 C 4.390625 -5.140625 4.390625 -5.203125 4.390625 -5.265625 C 4.398438 -5.328125 4.40625 -5.390625 4.40625 -5.453125 C 4.40625 -5.515625 4.398438 -5.570312 4.390625 -5.625 C 4.390625 -5.675781 4.382812 -5.734375 4.375 -5.796875 C 4.34375 -6.023438 4.289062 -6.25 4.21875 -6.46875 C 4.039062 -6.9375 3.785156 -7.320312 3.453125 -7.625 C 3.117188 -7.945312 2.726562 -8.15625 2.28125 -8.25 C 2.15625 -8.269531 2.023438 -8.28125 1.890625 -8.28125 L 2.03125 -1.53125 C 2.050781 -1.53125 2.066406 -1.53125 2.078125 -1.53125 C 2.085938 -1.539062 2.097656 -1.550781 2.109375 -1.5625 C 2.546875 -1.757812 2.9375 -2.039062 3.28125 -2.40625 C 3.601562 -2.75 3.863281 -3.15625 4.0625 -3.625 C 4.238281 -4.082031 4.347656 -4.566406 4.390625 -5.078125 Z M 4.390625 -5.078125 "/></g></g><g style="fill:#9f684e;fill-opacity:1;"><g transform="translate(11.712424, 19.000377)"><path style="stroke:none" d="M 7.625 -0.1875 L 6.34375 0.015625 C 6.164062 -1.023438 6.003906 -2.066406 5.859375 -3.109375 C 5.722656 -4.148438 5.585938 -5.195312 5.453125 -6.25 C 5.453125 -6.238281 5.445312 -6.226562 5.4375 -6.21875 C 5.4375 -6.207031 5.4375 -6.191406 5.4375 -6.171875 C 5.375 -5.921875 5.304688 -5.664062 5.234375 -5.40625 C 5.171875 -5.15625 5.113281 -4.898438 5.0625 -4.640625 L 4.78125 -3.453125 C 4.757812 -3.328125 4.734375 -3.195312 4.703125 -3.0625 C 4.671875 -2.9375 4.640625 -2.8125 4.609375 -2.6875 C 4.578125 -2.5625 4.546875 -2.429688 4.515625 -2.296875 C 4.484375 -2.171875 4.457031 -2.050781 4.4375 -1.9375 L 3.171875 -1.875 L 2.9375 -2.5625 L 2.71875 -3.25 L 2.5 -3.953125 L 2.359375 -4.421875 L 2.15625 -5.109375 C 2.144531 -5.035156 2.140625 -4.953125 2.140625 -4.859375 C 2.140625 -4.773438 2.132812 -4.691406 2.125 -4.609375 C 2.09375 -3.898438 2.054688 -3.191406 2.015625 -2.484375 C 1.984375 -1.785156 1.9375 -1.082031 1.875 -0.375 L 0.5625 -0.5 C 0.695312 -1.863281 0.78125 -3.25 0.8125 -4.65625 C 0.84375 -6.070312 0.9375 -7.492188 1.09375 -8.921875 L 2.390625 -9.015625 C 2.515625 -8.546875 2.644531 -8.078125 2.78125 -7.609375 C 2.914062 -7.140625 3.054688 -6.671875 3.203125 -6.203125 L 3.625 -4.796875 L 3.6875 -4.5625 L 3.765625 -4.9375 C 3.835938 -5.207031 3.90625 -5.472656 3.96875 -5.734375 C 4.03125 -5.992188 4.09375 -6.25 4.15625 -6.5 C 4.21875 -6.769531 4.285156 -7.035156 4.359375 -7.296875 C 4.429688 -7.554688 4.507812 -7.8125 4.59375 -8.0625 C 4.675781 -8.332031 4.757812 -8.597656 4.84375 -8.859375 C 4.9375 -9.117188 5.03125 -9.375 5.125 -9.625 L 6.40625 -9.46875 C 6.582031 -7.914062 6.765625 -6.363281 6.953125 -4.8125 C 7.148438 -3.269531 7.375 -1.726562 7.625 -0.1875 Z M 7.625 -0.1875 "/></g></g><g style="fill:#9f684e;fill-opacity:1;"><g transform="translate(19.43785, 19.000377)"><path style="stroke:none" d="M 2.40625 -1.515625 C 2.707031 -1.503906 3.007812 -1.488281 3.3125 -1.46875 C 3.613281 -1.445312 3.914062 -1.421875 4.21875 -1.390625 L 4.078125 -0.0625 C 3.796875 -0.101562 3.507812 -0.128906 3.21875 -0.140625 C 2.925781 -0.160156 2.632812 -0.179688 2.34375 -0.203125 C 2.050781 -0.210938 1.753906 -0.222656 1.453125 -0.234375 C 1.160156 -0.242188 0.863281 -0.257812 0.5625 -0.28125 L 0.640625 -1.59375 C 0.648438 -1.59375 0.65625 -1.59375 0.65625 -1.59375 C 0.6875 -2.144531 0.710938 -2.703125 0.734375 -3.265625 C 0.765625 -3.828125 0.796875 -4.382812 0.828125 -4.9375 C 0.867188 -5.71875 0.914062 -6.492188 0.96875 -7.265625 C 1.019531 -8.035156 1.078125 -8.8125 1.140625 -9.59375 L 2.453125 -9.484375 C 2.390625 -8.710938 2.332031 -7.941406 2.28125 -7.171875 C 2.226562 -6.398438 2.179688 -5.632812 2.140625 -4.875 C 2.109375 -4.3125 2.078125 -3.753906 2.046875 -3.203125 C 2.023438 -2.648438 2 -2.09375 1.96875 -1.53125 C 2.039062 -1.519531 2.113281 -1.515625 2.1875 -1.515625 C 2.269531 -1.515625 2.34375 -1.515625 2.40625 -1.515625 Z M 2.40625 -1.515625 "/></g></g><g clip-rule="nonzero" clip-path="url(#ec0fa43da5)"><g clip-rule="nonzero" clip-path="url(#0637a20bfb)"><g clip-rule="nonzero" clip-path="url(#356f8b3a7a)"><path style=" stroke:none;fill-rule:nonzero;fill:#f4f4f4;fill-opacity:1;" d="M 23.394531 19.828125 C 23.429688 19.777344 23.429688 19.726562 23.398438 19.695312 C 23.382812 19.679688 23.382812 19.648438 23.386719 19.636719 C 23.386719 19.621094 23.382812 19.609375 23.375 19.601562 C 23.375 19.601562 23.371094 19.597656 23.371094 19.597656 C 23.363281 19.589844 23.351562 19.589844 23.339844 19.589844 C 22.921875 19.683594 20.652344 19.972656 20.339844 19.980469 C 19.15625 20.015625 17.976562 20.078125 16.828125 20.171875 C 15.886719 20.246094 14.933594 20.339844 14.007812 20.429688 C 13.507812 20.476562 13.007812 20.527344 12.507812 20.574219 C 11.855469 20.632812 11.097656 20.699219 10.347656 20.75 C 10.144531 20.765625 9.9375 20.769531 9.734375 20.777344 C 9.351562 20.789062 8.957031 20.800781 8.582031 20.863281 C 8.5625 20.863281 8.546875 20.878906 8.546875 20.898438 C 8.546875 20.972656 8.550781 21.046875 8.558594 21.121094 C 8.5625 21.140625 8.582031 21.15625 8.601562 21.152344 C 9.761719 21.011719 10.882812 20.933594 12.070312 20.851562 L 12.636719 20.8125 C 12.898438 20.792969 13.171875 20.769531 13.429688 20.746094 C 13.910156 20.703125 14.402344 20.65625 14.890625 20.648438 C 15.097656 20.644531 15.308594 20.648438 15.511719 20.652344 C 15.945312 20.660156 16.390625 20.671875 16.832031 20.601562 C 17.605469 20.476562 18.386719 20.425781 19.144531 20.371094 C 19.578125 20.339844 20.023438 20.3125 20.46875 20.265625 C 20.699219 20.246094 20.929688 20.226562 21.160156 20.207031 C 21.832031 20.148438 22.523438 20.089844 23.183594 19.960938 C 23.199219 19.957031 23.207031 19.949219 23.214844 19.9375 C 23.222656 19.910156 23.246094 19.894531 23.28125 19.890625 C 23.320312 19.886719 23.363281 19.878906 23.394531 19.828125 "/></g></g></g><g clip-rule="nonzero" clip-path="url(#64d7572ffa)"><g clip-rule="nonzero" clip-path="url(#d45612691e)"><g clip-rule="nonzero" clip-path="url(#ac5c271726)"><path style=" stroke:none;fill-rule:nonzero;fill:#f4f4f4;fill-opacity:1;" d="M 8.625 21.699219 C 8.628906 21.785156 8.628906 21.875 8.640625 21.964844 C 8.648438 22.011719 8.652344 22.0625 8.652344 22.125 C 8.65625 22.136719 8.660156 22.148438 8.667969 22.15625 C 8.675781 22.164062 8.6875 22.164062 8.699219 22.164062 C 9.269531 22.078125 9.851562 22.050781 10.414062 22.027344 C 10.957031 22.003906 11.523438 21.976562 12.078125 21.898438 C 13.410156 21.707031 14.707031 21.585938 16.035156 21.527344 C 17.355469 21.472656 18.6875 21.347656 19.980469 21.226562 C 21.054688 21.125 22.164062 21.019531 23.257812 20.957031 C 23.269531 20.957031 23.277344 20.953125 23.285156 20.945312 C 23.289062 20.941406 23.292969 20.9375 23.296875 20.929688 C 23.300781 20.925781 23.300781 20.921875 23.304688 20.921875 C 23.472656 20.804688 23.570312 20.664062 23.585938 20.496094 C 23.601562 20.386719 23.480469 20.265625 23.363281 20.167969 C 23.34375 20.15625 23.328125 20.144531 23.3125 20.128906 C 23.304688 20.125 23.292969 20.121094 23.28125 20.125 C 22.417969 20.296875 21.503906 20.363281 20.621094 20.429688 L 20.359375 20.449219 C 20.054688 20.472656 19.746094 20.484375 19.445312 20.496094 C 19.152344 20.507812 18.847656 20.519531 18.546875 20.542969 C 18.1875 20.566406 17.824219 20.628906 17.472656 20.6875 C 17.199219 20.730469 16.917969 20.777344 16.636719 20.808594 C 16.242188 20.847656 15.839844 20.84375 15.449219 20.835938 C 15.125 20.828125 14.792969 20.824219 14.460938 20.84375 C 14.179688 20.863281 13.890625 20.890625 13.613281 20.914062 C 13.226562 20.949219 12.828125 20.984375 12.4375 21.003906 C 11.152344 21.066406 9.90625 21.175781 8.632812 21.332031 C 8.621094 21.332031 8.613281 21.335938 8.605469 21.34375 C 8.601562 21.355469 8.597656 21.363281 8.597656 21.375 C 8.617188 21.484375 8.621094 21.59375 8.625 21.699219 "/></g></g></g><g clip-rule="nonzero" clip-path="url(#6ef6f19632)"><g clip-rule="nonzero" clip-path="url(#b6fa03590b)"><g clip-rule="nonzero" clip-path="url(#a1fcf671e2)"><path style=" stroke:none;fill-rule:nonzero;fill:#f4f4f4;fill-opacity:1;" d="M 8.5625 22.738281 C 8.554688 22.675781 8.550781 22.609375 8.53125 22.542969 C 8.476562 22.382812 8.46875 22.171875 8.464844 21.988281 C 8.457031 21.75 8.4375 21.523438 8.402344 21.269531 L 8.394531 21.210938 C 8.378906 21.105469 8.367188 21.007812 8.367188 20.910156 C 8.367188 20.890625 8.347656 20.878906 8.335938 20.859375 C 8.335938 20.855469 8.332031 20.851562 8.324219 20.847656 C 8.320312 20.84375 8.316406 20.839844 8.308594 20.839844 C 8.242188 20.828125 8.15625 20.832031 8.042969 20.847656 C 8.023438 20.847656 8.007812 20.863281 8.007812 20.882812 C 8.003906 20.988281 7.996094 21.09375 7.984375 21.195312 C 7.964844 21.4375 7.941406 21.691406 7.992188 21.941406 C 8.023438 22.105469 8.042969 22.269531 8.0625 22.433594 C 8.078125 22.550781 8.09375 22.675781 8.113281 22.792969 C 8.117188 22.8125 8.132812 22.828125 8.152344 22.828125 C 8.253906 22.828125 8.382812 22.851562 8.496094 22.875 L 8.523438 22.878906 C 8.535156 22.882812 8.550781 22.878906 8.558594 22.871094 C 8.566406 22.859375 8.574219 22.847656 8.570312 22.835938 C 8.566406 22.804688 8.5625 22.773438 8.5625 22.738281 "/></g></g></g><g clip-rule="nonzero" clip-path="url(#043a05c280)"><g clip-rule="nonzero" clip-path="url(#7666f21882)"><g clip-rule="nonzero" clip-path="url(#50ac7f318a)"><path style=" stroke:none;fill-rule:nonzero;fill:#f4f4f4;fill-opacity:1;" d="M 26.46875 20.4375 C 26.464844 20.414062 26.460938 20.386719 26.453125 20.363281 C 26.433594 20.296875 26.441406 20.25 26.460938 20.199219 C 26.464844 20.1875 26.464844 20.175781 26.457031 20.164062 C 26.457031 20.160156 26.453125 20.15625 26.449219 20.15625 C 26.445312 20.152344 26.4375 20.148438 26.429688 20.148438 C 26.183594 20.101562 25.917969 20.054688 25.628906 20.035156 L 25.40625 20.019531 C 25.0625 19.996094 24.707031 19.972656 24.355469 19.957031 C 24.148438 19.945312 23.988281 19.894531 23.820312 19.84375 C 23.761719 19.824219 23.703125 19.804688 23.640625 19.789062 C 23.628906 19.785156 23.617188 19.785156 23.609375 19.792969 C 23.601562 19.796875 23.59375 19.804688 23.589844 19.816406 C 23.582031 19.855469 23.5625 19.894531 23.542969 19.925781 C 23.527344 19.949219 23.511719 19.96875 23.488281 19.992188 C 23.480469 20 23.472656 20.007812 23.476562 20.019531 C 23.476562 20.03125 23.480469 20.042969 23.488281 20.050781 C 23.703125 20.21875 23.804688 20.339844 23.761719 20.519531 C 23.71875 20.722656 23.640625 20.867188 23.523438 20.980469 C 23.515625 20.988281 23.511719 21 23.511719 21.011719 C 23.511719 21.03125 23.535156 21.046875 23.550781 21.058594 C 23.558594 21.066406 23.566406 21.074219 23.582031 21.085938 C 23.648438 21.140625 23.707031 21.191406 23.730469 21.261719 C 23.742188 21.296875 23.742188 21.332031 23.734375 21.367188 C 23.730469 21.378906 23.734375 21.394531 23.746094 21.402344 C 23.753906 21.414062 23.769531 21.417969 23.78125 21.414062 C 23.820312 21.40625 23.859375 21.398438 23.898438 21.390625 C 24.042969 21.359375 24.199219 21.324219 24.34375 21.269531 C 24.738281 21.121094 25.148438 21.003906 25.546875 20.894531 C 25.640625 20.867188 25.734375 20.839844 25.832031 20.8125 C 26.046875 20.75 26.265625 20.6875 26.484375 20.621094 C 26.496094 20.621094 26.503906 20.609375 26.507812 20.601562 C 26.511719 20.589844 26.511719 20.578125 26.507812 20.566406 C 26.488281 20.53125 26.476562 20.484375 26.46875 20.4375 "/></g></g></g><g clip-rule="nonzero" clip-path="url(#d7f1b22e86)"><g clip-rule="nonzero" clip-path="url(#e09475c083)"><g clip-rule="nonzero" clip-path="url(#c2aa9a4c83)"><path style=" stroke:none;fill-rule:nonzero;fill:#f4f4f4;fill-opacity:1;" d="M 7.519531 22.804688 C 7.515625 22.792969 7.511719 22.785156 7.511719 22.773438 C 7.492188 22.605469 7.492188 22.433594 7.492188 22.265625 C 7.496094 22.152344 7.496094 22.039062 7.488281 21.925781 C 7.484375 21.820312 7.484375 21.710938 7.484375 21.601562 C 7.484375 21.394531 7.480469 21.179688 7.449219 20.976562 C 7.449219 20.964844 7.441406 20.957031 7.4375 20.949219 C 7.433594 20.945312 7.429688 20.945312 7.425781 20.945312 C 7.410156 20.9375 7.394531 20.941406 7.386719 20.953125 C 7.378906 20.957031 7.367188 20.957031 7.351562 20.960938 C 7.328125 20.960938 7.289062 20.964844 7.265625 21.007812 C 7.222656 21.085938 7.253906 21.1875 7.28125 21.273438 C 7.292969 21.3125 7.304688 21.347656 7.308594 21.375 C 7.328125 21.515625 7.3125 21.671875 7.296875 21.820312 L 7.289062 21.914062 C 7.269531 22.117188 7.265625 22.316406 7.277344 22.539062 C 7.277344 22.566406 7.277344 22.59375 7.277344 22.621094 C 7.277344 22.691406 7.277344 22.777344 7.308594 22.847656 C 7.320312 22.875 7.355469 22.945312 7.429688 22.953125 C 7.460938 22.953125 7.488281 22.945312 7.503906 22.925781 C 7.535156 22.890625 7.523438 22.84375 7.519531 22.804688 "/></g></g></g><g clip-rule="nonzero" clip-path="url(#d2f1a59b09)"><g clip-rule="nonzero" clip-path="url(#c6a92cf92b)"><g clip-rule="nonzero" clip-path="url(#ee32260810)"><path style=" stroke:none;fill-rule:nonzero;fill:#f4f4f4;fill-opacity:1;" d="M 23.535156 21.367188 C 23.542969 21.359375 23.546875 21.355469 23.550781 21.351562 C 23.554688 21.34375 23.5625 21.328125 23.5625 21.316406 C 23.5625 21.304688 23.550781 21.292969 23.542969 21.285156 L 23.539062 21.285156 C 23.539062 21.285156 23.539062 21.285156 23.539062 21.28125 C 23.523438 21.269531 23.507812 21.257812 23.496094 21.242188 C 23.46875 21.21875 23.4375 21.191406 23.40625 21.167969 C 23.394531 21.15625 23.378906 21.144531 23.367188 21.136719 C 23.359375 21.132812 23.351562 21.128906 23.34375 21.128906 C 22.253906 21.191406 21.148438 21.296875 20.078125 21.398438 C 18.765625 21.527344 17.40625 21.65625 16.058594 21.707031 C 15.863281 21.710938 15.667969 21.71875 15.472656 21.722656 C 14.949219 21.734375 14.40625 21.75 13.875 21.808594 C 13.539062 21.84375 13.199219 21.902344 12.871094 21.953125 C 12.542969 22.007812 12.207031 22.066406 11.871094 22.101562 C 11.410156 22.152344 10.9375 22.175781 10.484375 22.199219 C 9.902344 22.226562 9.304688 22.253906 8.714844 22.339844 C 8.703125 22.34375 8.695312 22.347656 8.6875 22.359375 C 8.679688 22.367188 8.679688 22.378906 8.679688 22.386719 C 8.691406 22.441406 8.703125 22.488281 8.71875 22.542969 C 8.730469 22.574219 8.730469 22.617188 8.730469 22.664062 C 8.730469 22.6875 8.730469 22.710938 8.730469 22.730469 C 8.730469 22.742188 8.734375 22.753906 8.742188 22.757812 C 8.75 22.765625 8.761719 22.769531 8.773438 22.769531 C 9.148438 22.742188 9.527344 22.71875 9.898438 22.695312 C 10.730469 22.644531 11.59375 22.589844 12.433594 22.484375 C 13.390625 22.367188 14.355469 22.332031 15.292969 22.300781 C 15.707031 22.285156 16.132812 22.269531 16.554688 22.246094 C 17.800781 22.179688 19.160156 22.050781 20.828125 21.84375 C 21.34375 21.78125 21.863281 21.730469 22.367188 21.679688 C 22.6875 21.652344 23.007812 21.621094 23.324219 21.585938 C 23.335938 21.585938 23.347656 21.578125 23.355469 21.570312 C 23.363281 21.554688 23.375 21.542969 23.394531 21.535156 C 23.402344 21.53125 23.410156 21.527344 23.421875 21.523438 C 23.425781 21.519531 23.429688 21.519531 23.433594 21.511719 C 23.449219 21.492188 23.460938 21.472656 23.476562 21.449219 C 23.496094 21.421875 23.515625 21.394531 23.535156 21.367188 "/></g></g></g><g clip-rule="nonzero" clip-path="url(#7473f59672)"><g clip-rule="nonzero" clip-path="url(#2470406317)"><g clip-rule="nonzero" clip-path="url(#58d49e2919)"><path style=" stroke:none;fill-rule:nonzero;fill:#f4f4f4;fill-opacity:1;" d="M 27.464844 20.25 C 27.457031 20.246094 27.449219 20.242188 27.441406 20.242188 C 27.382812 20.242188 27.328125 20.242188 27.273438 20.238281 C 27.105469 20.238281 26.945312 20.234375 26.8125 20.214844 C 26.785156 20.210938 26.753906 20.203125 26.726562 20.199219 L 26.6875 20.191406 C 26.671875 20.1875 26.652344 20.203125 26.644531 20.21875 C 26.625 20.25 26.617188 20.269531 26.617188 20.292969 L 26.621094 20.308594 C 26.628906 20.332031 26.632812 20.355469 26.636719 20.378906 C 26.640625 20.386719 26.640625 20.394531 26.640625 20.40625 C 26.644531 20.4375 26.652344 20.476562 26.679688 20.507812 C 26.683594 20.507812 26.683594 20.507812 26.6875 20.515625 C 26.6875 20.515625 26.691406 20.523438 26.691406 20.527344 C 26.699219 20.542969 26.71875 20.550781 26.738281 20.546875 C 26.992188 20.46875 27.226562 20.394531 27.453125 20.320312 C 27.46875 20.3125 27.480469 20.292969 27.476562 20.277344 C 27.476562 20.265625 27.472656 20.257812 27.464844 20.25 "/></g></g></g><g clip-rule="nonzero" clip-path="url(#25364aa522)"><g clip-rule="nonzero" clip-path="url(#05e5e4688b)"><g clip-rule="nonzero" clip-path="url(#b7cb663a55)"><path style=" stroke:none;fill-rule:nonzero;fill:#f4f4f4;fill-opacity:1;" d="M 7.859375 22.320312 C 7.855469 22.242188 7.835938 22.164062 7.820312 22.085938 C 7.804688 21.992188 7.78125 21.890625 7.78125 21.800781 C 7.777344 21.609375 7.792969 21.417969 7.804688 21.230469 C 7.8125 21.128906 7.820312 21.03125 7.828125 20.933594 C 7.828125 20.921875 7.824219 20.910156 7.816406 20.902344 C 7.8125 20.898438 7.8125 20.898438 7.8125 20.898438 C 7.804688 20.894531 7.792969 20.890625 7.78125 20.890625 C 7.777344 20.890625 7.769531 20.890625 7.765625 20.894531 C 7.761719 20.894531 7.753906 20.894531 7.742188 20.894531 C 7.714844 20.902344 7.6875 20.90625 7.660156 20.910156 C 7.640625 20.914062 7.625 20.933594 7.628906 20.953125 C 7.652344 21.292969 7.664062 21.613281 7.667969 21.898438 C 7.667969 21.984375 7.664062 22.070312 7.664062 22.15625 C 7.65625 22.394531 7.648438 22.640625 7.710938 22.882812 C 7.714844 22.902344 7.734375 22.914062 7.753906 22.914062 C 7.808594 22.90625 7.863281 22.898438 7.910156 22.890625 C 7.929688 22.886719 7.945312 22.867188 7.941406 22.84375 C 7.90625 22.652344 7.878906 22.488281 7.859375 22.320312 "/></g></g></g><g clip-rule="nonzero" clip-path="url(#b6f1f126af)"><g clip-rule="nonzero" clip-path="url(#efa3517466)"><g clip-rule="nonzero" clip-path="url(#45f6e013df)"><path style=" stroke:none;fill-rule:nonzero;fill:#f4f4f4;fill-opacity:1;" d="M 7.003906 22.839844 C 6.917969 22.855469 6.804688 22.851562 6.714844 22.84375 C 6.644531 22.84375 6.570312 22.832031 6.492188 22.8125 C 6.429688 22.796875 6.410156 22.738281 6.421875 22.6875 C 6.425781 22.671875 6.445312 22.617188 6.507812 22.632812 C 6.582031 22.652344 6.664062 22.671875 6.75 22.667969 C 6.769531 22.667969 6.792969 22.671875 6.816406 22.671875 C 6.875 22.671875 6.933594 22.671875 6.992188 22.660156 C 7.0625 22.648438 7.078125 22.707031 7.082031 22.726562 C 7.089844 22.765625 7.074219 22.828125 7.003906 22.839844 Z M 6.285156 22.367188 C 6.289062 22.320312 6.320312 22.277344 6.382812 22.28125 C 6.511719 22.296875 6.640625 22.300781 6.769531 22.300781 C 6.824219 22.304688 6.878906 22.304688 6.929688 22.308594 C 6.953125 22.308594 6.96875 22.320312 6.976562 22.332031 C 6.996094 22.355469 7.003906 22.382812 7.003906 22.40625 C 6.992188 22.464844 6.941406 22.484375 6.894531 22.484375 C 6.847656 22.480469 6.796875 22.480469 6.746094 22.480469 C 6.617188 22.476562 6.484375 22.472656 6.355469 22.460938 C 6.292969 22.453125 6.28125 22.40625 6.285156 22.367188 Z M 6.230469 22.125 C 6.222656 22.121094 6.21875 22.113281 6.210938 22.109375 C 6.191406 22.078125 6.1875 22.039062 6.203125 22.007812 C 6.214844 21.984375 6.238281 21.96875 6.269531 21.964844 C 6.351562 21.957031 6.429688 21.960938 6.515625 21.960938 L 6.570312 21.964844 C 6.605469 21.964844 6.640625 21.964844 6.675781 21.96875 C 6.738281 21.964844 6.796875 21.96875 6.859375 21.976562 C 6.886719 21.984375 6.90625 21.996094 6.917969 22.015625 C 6.929688 22.035156 6.933594 22.0625 6.929688 22.085938 C 6.925781 22.109375 6.914062 22.128906 6.898438 22.140625 C 6.882812 22.15625 6.859375 22.160156 6.832031 22.15625 C 6.769531 22.144531 6.710938 22.144531 6.648438 22.144531 C 6.621094 22.144531 6.59375 22.144531 6.566406 22.140625 L 6.507812 22.140625 C 6.4375 22.136719 6.363281 22.136719 6.289062 22.140625 C 6.261719 22.144531 6.242188 22.136719 6.230469 22.125 Z M 6.210938 21.6875 C 6.195312 21.671875 6.183594 21.65625 6.179688 21.632812 C 6.175781 21.605469 6.1875 21.578125 6.207031 21.554688 C 6.214844 21.546875 6.234375 21.53125 6.253906 21.53125 C 6.308594 21.53125 6.363281 21.535156 6.414062 21.539062 C 6.53125 21.550781 6.648438 21.5625 6.765625 21.523438 C 6.808594 21.511719 6.839844 21.523438 6.855469 21.539062 C 6.882812 21.5625 6.894531 21.601562 6.890625 21.636719 C 6.882812 21.660156 6.867188 21.679688 6.835938 21.6875 C 6.730469 21.722656 6.640625 21.734375 6.550781 21.730469 C 6.515625 21.726562 6.480469 21.722656 6.445312 21.71875 C 6.390625 21.714844 6.339844 21.707031 6.285156 21.710938 C 6.257812 21.710938 6.230469 21.703125 6.210938 21.6875 Z M 6.304688 21.320312 C 6.292969 21.289062 6.296875 21.25 6.316406 21.21875 C 6.328125 21.203125 6.355469 21.179688 6.398438 21.183594 L 6.445312 21.1875 C 6.503906 21.191406 6.566406 21.195312 6.621094 21.210938 C 6.648438 21.222656 6.691406 21.214844 6.738281 21.207031 L 6.761719 21.203125 C 6.792969 21.195312 6.820312 21.195312 6.847656 21.199219 C 6.90625 21.210938 6.925781 21.265625 6.917969 21.308594 C 6.914062 21.332031 6.902344 21.351562 6.886719 21.363281 C 6.871094 21.378906 6.847656 21.382812 6.824219 21.378906 C 6.792969 21.371094 6.761719 21.378906 6.734375 21.382812 C 6.722656 21.382812 6.714844 21.386719 6.707031 21.386719 C 6.671875 21.390625 6.636719 21.390625 6.597656 21.390625 L 6.589844 21.390625 C 6.550781 21.386719 6.511719 21.378906 6.46875 21.375 C 6.433594 21.367188 6.402344 21.363281 6.367188 21.359375 C 6.347656 21.359375 6.335938 21.351562 6.324219 21.34375 C 6.316406 21.335938 6.308594 21.328125 6.304688 21.320312 Z M 7.230469 22.710938 C 7.199219 22.390625 7.171875 22.085938 7.175781 21.765625 C 7.179688 21.582031 7.175781 21.382812 7.152344 21.183594 C 7.152344 21.15625 7.144531 21.128906 7.140625 21.105469 C 7.136719 21.082031 7.132812 21.054688 7.128906 21.03125 C 7.128906 21.019531 7.121094 21.011719 7.113281 21.003906 C 7.105469 21 7.09375 20.996094 7.085938 20.996094 C 7.015625 21.007812 6.945312 21.015625 6.875 21.019531 L 6.863281 21.023438 C 6.800781 21.027344 6.726562 21.019531 6.648438 21.015625 C 6.484375 21 6.304688 20.984375 6.179688 21.066406 C 6.140625 21.089844 6.09375 21.09375 6.0625 21.089844 C 6.050781 21.089844 6.039062 21.09375 6.03125 21.101562 C 6.023438 21.109375 6.019531 21.121094 6.019531 21.128906 C 6.019531 21.773438 6.105469 22.367188 6.285156 22.996094 C 6.292969 23.015625 6.308594 23.027344 6.328125 23.023438 C 6.59375 23.003906 6.882812 22.988281 7.167969 23.003906 C 7.191406 23.003906 7.210938 23.003906 7.226562 22.996094 C 7.242188 22.992188 7.253906 22.976562 7.253906 22.957031 C 7.246094 22.875 7.238281 22.792969 7.230469 22.710938 "/></g></g></g><g clip-rule="nonzero" clip-path="url(#67b7bea578)"><g clip-rule="nonzero" clip-path="url(#3c0d6de201)"><g clip-rule="nonzero" clip-path="url(#eb81ccc163)"><path style=" stroke:none;fill-rule:nonzero;fill:#f4f4f4;fill-opacity:1;" d="M 5.875 21.960938 C 5.839844 21.683594 5.839844 21.414062 5.84375 21.140625 C 5.84375 21.128906 5.835938 21.121094 5.828125 21.113281 C 5.828125 21.113281 5.828125 21.109375 5.828125 21.109375 C 5.820312 21.105469 5.808594 21.101562 5.796875 21.101562 C 5.6875 21.117188 5.566406 21.140625 5.527344 21.15625 C 5.488281 21.175781 5.433594 21.140625 5.417969 21.132812 C 5.40625 21.125 5.394531 21.121094 5.378906 21.128906 C 5.367188 21.132812 5.359375 21.148438 5.359375 21.160156 C 5.34375 21.328125 5.347656 21.492188 5.355469 21.664062 L 5.359375 21.792969 C 5.359375 21.917969 5.390625 22.035156 5.421875 22.148438 C 5.4375 22.207031 5.449219 22.265625 5.464844 22.324219 C 5.472656 22.363281 5.476562 22.414062 5.484375 22.46875 C 5.507812 22.652344 5.539062 22.886719 5.652344 23.003906 C 5.664062 23.015625 5.671875 23.027344 5.675781 23.042969 C 5.679688 23.0625 5.699219 23.074219 5.714844 23.070312 C 5.832031 23.0625 5.949219 23.054688 6.066406 23.042969 C 6.078125 23.042969 6.089844 23.039062 6.09375 23.027344 C 6.101562 23.019531 6.101562 23.007812 6.101562 22.996094 C 6.011719 22.675781 5.921875 22.328125 5.875 21.960938 "/></g></g></g><g clip-rule="nonzero" clip-path="url(#2c56977278)"><g clip-rule="nonzero" clip-path="url(#27a63101b8)"><g clip-rule="nonzero" clip-path="url(#6e55965efe)"><path style=" stroke:none;fill-rule:nonzero;fill:#f4f4f4;fill-opacity:1;" d="M 5.457031 23.027344 C 5.34375 22.839844 5.304688 22.59375 5.265625 22.355469 C 5.25 22.257812 5.234375 22.164062 5.214844 22.074219 C 5.179688 21.929688 5.179688 21.785156 5.175781 21.636719 C 5.175781 21.582031 5.171875 21.527344 5.171875 21.472656 C 5.167969 21.433594 5.160156 21.390625 5.152344 21.351562 C 5.140625 21.300781 5.132812 21.253906 5.136719 21.210938 C 5.140625 21.203125 5.140625 21.195312 5.144531 21.191406 C 5.144531 21.179688 5.148438 21.171875 5.148438 21.164062 C 5.152344 21.148438 5.148438 21.136719 5.136719 21.125 C 5.125 21.117188 5.109375 21.117188 5.097656 21.117188 C 5.015625 21.144531 4.921875 21.179688 4.816406 21.226562 C 4.800781 21.230469 4.792969 21.246094 4.792969 21.261719 C 4.789062 21.316406 4.789062 21.371094 4.785156 21.421875 C 4.78125 21.496094 4.773438 21.570312 4.777344 21.644531 C 4.777344 21.703125 4.765625 21.765625 4.757812 21.828125 L 4.753906 21.851562 C 4.738281 21.929688 4.75 21.996094 4.757812 22.0625 C 4.757812 22.09375 4.761719 22.125 4.765625 22.160156 C 4.769531 22.351562 4.789062 22.558594 4.863281 22.796875 C 4.882812 22.851562 4.882812 22.917969 4.882812 22.984375 C 4.882812 23.003906 4.886719 23.019531 4.886719 23.039062 C 4.886719 23.0625 4.902344 23.078125 4.921875 23.078125 C 5.089844 23.089844 5.253906 23.089844 5.425781 23.085938 C 5.4375 23.085938 5.453125 23.078125 5.457031 23.066406 C 5.464844 23.054688 5.464844 23.039062 5.457031 23.027344 "/></g></g></g><g clip-rule="nonzero" clip-path="url(#0a6174592e)"><g clip-rule="nonzero" clip-path="url(#a953cf09ca)"><g clip-rule="nonzero" clip-path="url(#4cbf116aa2)"><path style=" stroke:none;fill-rule:nonzero;fill:#f4f4f4;fill-opacity:1;" d="M 3.300781 21.605469 C 3.285156 21.699219 3.269531 21.796875 3.261719 21.894531 C 3.253906 22.035156 3.277344 22.183594 3.304688 22.324219 C 3.3125 22.359375 3.316406 22.390625 3.320312 22.425781 L 3.335938 22.511719 C 3.355469 22.640625 3.375 22.777344 3.40625 22.90625 C 3.414062 22.945312 3.425781 22.980469 3.4375 23.015625 C 3.453125 23.070312 3.464844 23.121094 3.472656 23.175781 C 3.476562 23.191406 3.488281 23.203125 3.503906 23.207031 C 3.71875 23.25 4.023438 23.28125 4.246094 23.207031 C 4.351562 23.171875 4.457031 23.15625 4.570312 23.140625 C 4.605469 23.132812 4.640625 23.128906 4.671875 23.125 C 4.683594 23.121094 4.691406 23.117188 4.699219 23.109375 C 4.703125 23.101562 4.707031 23.089844 4.707031 23.078125 C 4.695312 23.03125 4.691406 22.988281 4.683594 22.941406 C 4.671875 22.855469 4.660156 22.765625 4.640625 22.675781 C 4.617188 22.589844 4.613281 22.503906 4.609375 22.421875 C 4.605469 22.339844 4.601562 22.257812 4.585938 22.179688 C 4.546875 21.992188 4.566406 21.808594 4.589844 21.613281 C 4.601562 21.527344 4.609375 21.441406 4.613281 21.351562 C 4.617188 21.339844 4.609375 21.328125 4.601562 21.320312 C 4.601562 21.320312 4.597656 21.320312 4.597656 21.320312 C 4.589844 21.3125 4.574219 21.308594 4.5625 21.3125 C 4.257812 21.425781 3.910156 21.441406 3.570312 21.453125 C 3.5 21.457031 3.425781 21.460938 3.355469 21.464844 C 3.335938 21.464844 3.320312 21.476562 3.316406 21.496094 C 3.3125 21.53125 3.308594 21.566406 3.300781 21.605469 "/></g></g></g></g></svg>