<svg xmlns="http://www.w3.org/2000/svg" xmlns:xlink="http://www.w3.org/1999/xlink" width="80" zoomAndPan="magnify" viewBox="0 0 60 60" height="80" preserveAspectRatio="xMidYMid meet" version="1.0"><defs><g/><clipPath id="38d22fbe93"><rect x="0" width="39" y="0" height="32"/></clipPath><clipPath id="982196ddd2"><path d="M 16 40 L 48 40 L 48 44 L 16 44 Z M 16 40 " clip-rule="nonzero"/></clipPath><clipPath id="1888252de5"><path d="M 33.511719 69.898438 L 3.621094 46.03125 L 26.082031 17.898438 L 55.972656 41.765625 Z M 33.511719 69.898438 " clip-rule="nonzero"/></clipPath><clipPath id="1abe1b9fe8"><path d="M 33.511719 69.898438 L 3.621094 46.03125 L 26.082031 17.898438 L 55.972656 41.765625 Z M 33.511719 69.898438 " clip-rule="nonzero"/></clipPath><clipPath id="cf6a7c9963"><path d="M 16 41 L 48 41 L 48 46 L 16 46 Z M 16 41 " clip-rule="nonzero"/></clipPath><clipPath id="cfcf60c03c"><path d="M 33.511719 69.898438 L 3.621094 46.03125 L 26.082031 17.898438 L 55.972656 41.765625 Z M 33.511719 69.898438 " clip-rule="nonzero"/></clipPath><clipPath id="10470130de"><path d="M 33.511719 69.898438 L 3.621094 46.03125 L 26.082031 17.898438 L 55.972656 41.765625 Z M 33.511719 69.898438 " clip-rule="nonzero"/></clipPath><clipPath id="bdfbef4b0b"><path d="M 15 42 L 17 42 L 17 47 L 15 47 Z M 15 42 " clip-rule="nonzero"/></clipPath><clipPath id="1725f66660"><path d="M 33.511719 69.898438 L 3.621094 46.03125 L 26.082031 17.898438 L 55.972656 41.765625 Z M 33.511719 69.898438 " clip-rule="nonzero"/></clipPath><clipPath id="c56e007ba4"><path d="M 33.511719 69.898438 L 3.621094 46.03125 L 26.082031 17.898438 L 55.972656 41.765625 Z M 33.511719 69.898438 " clip-rule="nonzero"/></clipPath><clipPath id="fb85d72e4f"><path d="M 47 40 L 55 40 L 55 44 L 47 44 Z M 47 40 " clip-rule="nonzero"/></clipPath><clipPath id="836b582480"><path d="M 33.511719 69.898438 L 3.621094 46.03125 L 26.082031 17.898438 L 55.972656 41.765625 Z M 33.511719 69.898438 " clip-rule="nonzero"/></clipPath><clipPath id="2a54605ba4"><path d="M 33.511719 69.898438 L 3.621094 46.03125 L 26.082031 17.898438 L 55.972656 41.765625 Z M 33.511719 69.898438 " clip-rule="nonzero"/></clipPath><clipPath id="5e669812a5"><path d="M 13 42 L 15 42 L 15 48 L 13 48 Z M 13 42 " clip-rule="nonzero"/></clipPath><clipPath id="f9a55d1c19"><path d="M 33.511719 69.898438 L 3.621094 46.03125 L 26.082031 17.898438 L 55.972656 41.765625 Z M 33.511719 69.898438 " clip-rule="nonzero"/></clipPath><clipPath id="214da2a1d6"><path d="M 33.511719 69.898438 L 3.621094 46.03125 L 26.082031 17.898438 L 55.972656 41.765625 Z M 33.511719 69.898438 " clip-rule="nonzero"/></clipPath><clipPath id="8e6a6e1a15"><path d="M 16 43 L 48 43 L 48 47 L 16 47 Z M 16 43 " clip-rule="nonzero"/></clipPath><clipPath id="f683974d5c"><path d="M 33.511719 69.898438 L 3.621094 46.03125 L 26.082031 17.898438 L 55.972656 41.765625 Z M 33.511719 69.898438 " clip-rule="nonzero"/></clipPath><clipPath id="af7bf307e5"><path d="M 33.511719 69.898438 L 3.621094 46.03125 L 26.082031 17.898438 L 55.972656 41.765625 Z M 33.511719 69.898438 " clip-rule="nonzero"/></clipPath><clipPath id="1344fd8b9d"><path d="M 54 41 L 56 41 L 56 43 L 54 43 Z M 54 41 " clip-rule="nonzero"/></clipPath><clipPath id="a41f663f50"><path d="M 33.511719 69.898438 L 3.621094 46.03125 L 26.082031 17.898438 L 55.972656 41.765625 Z M 33.511719 69.898438 " clip-rule="nonzero"/></clipPath><clipPath id="95aee091ba"><path d="M 33.511719 69.898438 L 3.621094 46.03125 L 26.082031 17.898438 L 55.972656 41.765625 Z M 33.511719 69.898438 " clip-rule="nonzero"/></clipPath><clipPath id="0b026cc757"><path d="M 14 42 L 16 42 L 16 48 L 14 48 Z M 14 42 " clip-rule="nonzero"/></clipPath><clipPath id="036803abae"><path d="M 33.511719 69.898438 L 3.621094 46.03125 L 26.082031 17.898438 L 55.972656 41.765625 Z M 33.511719 69.898438 " clip-rule="nonzero"/></clipPath><clipPath id="186163b5d9"><path d="M 33.511719 69.898438 L 3.621094 46.03125 L 26.082031 17.898438 L 55.972656 41.765625 Z M 33.511719 69.898438 " clip-rule="nonzero"/></clipPath><clipPath id="2b8e91e909"><path d="M 11 43 L 14 43 L 14 48 L 11 48 Z M 11 43 " clip-rule="nonzero"/></clipPath><clipPath id="035508b7c9"><path d="M 33.511719 69.898438 L 3.621094 46.03125 L 26.082031 17.898438 L 55.972656 41.765625 Z M 33.511719 69.898438 " clip-rule="nonzero"/></clipPath><clipPath id="04a1350094"><path d="M 33.511719 69.898438 L 3.621094 46.03125 L 26.082031 17.898438 L 55.972656 41.765625 Z M 33.511719 69.898438 " clip-rule="nonzero"/></clipPath><clipPath id="9dc07f98cf"><path d="M 9 43 L 12 43 L 12 48 L 9 48 Z M 9 43 " clip-rule="nonzero"/></clipPath><clipPath id="b119540770"><path d="M 33.511719 69.898438 L 3.621094 46.03125 L 26.082031 17.898438 L 55.972656 41.765625 Z M 33.511719 69.898438 " clip-rule="nonzero"/></clipPath><clipPath id="cfb7691c5e"><path d="M 33.511719 69.898438 L 3.621094 46.03125 L 26.082031 17.898438 L 55.972656 41.765625 Z M 33.511719 69.898438 " clip-rule="nonzero"/></clipPath><clipPath id="ba5fa6b7a6"><path d="M 8 43 L 10 43 L 10 48 L 8 48 Z M 8 43 " clip-rule="nonzero"/></clipPath><clipPath id="7c9838eab0"><path d="M 33.511719 69.898438 L 3.621094 46.03125 L 26.082031 17.898438 L 55.972656 41.765625 Z M 33.511719 69.898438 " clip-rule="nonzero"/></clipPath><clipPath id="8a9a86584e"><path d="M 33.511719 69.898438 L 3.621094 46.03125 L 26.082031 17.898438 L 55.972656 41.765625 Z M 33.511719 69.898438 " clip-rule="nonzero"/></clipPath><clipPath id="71f36a98e3"><path d="M 5 43 L 9 43 L 9 48 L 5 48 Z M 5 43 " clip-rule="nonzero"/></clipPath><clipPath id="1102634570"><path d="M 33.511719 69.898438 L 3.621094 46.03125 L 26.082031 17.898438 L 55.972656 41.765625 Z M 33.511719 69.898438 " clip-rule="nonzero"/></clipPath><clipPath id="e139394420"><path d="M 33.511719 69.898438 L 3.621094 46.03125 L 26.082031 17.898438 L 55.972656 41.765625 Z M 33.511719 69.898438 " clip-rule="nonzero"/></clipPath></defs><g transform="matrix(1, 0, 0, 1, 10, 11)"><g clip-path="url(#38d22fbe93)"><g fill="#ffffff" fill-opacity="1"><g transform="translate(1.266776, 28.267443)"><g><path d="M 11.734375 -12.3125 C 11.773438 -12.132812 11.800781 -11.960938 11.8125 -11.796875 C 11.820312 -11.628906 11.828125 -11.453125 11.828125 -11.265625 C 11.828125 -11.109375 11.820312 -10.945312 11.8125 -10.78125 C 11.800781 -10.625 11.785156 -10.460938 11.765625 -10.296875 C 11.734375 -9.648438 11.644531 -9.003906 11.5 -8.359375 C 11.351562 -7.722656 11.160156 -7.09375 10.921875 -6.46875 C 10.648438 -5.84375 10.335938 -5.242188 9.984375 -4.671875 C 9.640625 -4.109375 9.234375 -3.582031 8.765625 -3.09375 C 7.816406 -2.070312 6.71875 -1.285156 5.46875 -0.734375 C 5.09375 -0.566406 4.6875 -0.425781 4.25 -0.3125 L 4.25 -0.25 L 4.109375 -0.25 C 3.242188 -0.03125 2.375 0.078125 1.5 0.078125 L 1.5 -1.703125 L 1.140625 -19.484375 L 1.21875 -19.484375 L 1.1875 -19.59375 C 1.832031 -19.75 2.5 -19.84375 3.1875 -19.875 C 3.875 -19.914062 4.570312 -19.859375 5.28125 -19.703125 C 5.976562 -19.554688 6.640625 -19.320312 7.265625 -19 C 7.898438 -18.675781 8.472656 -18.269531 8.984375 -17.78125 C 9.515625 -17.289062 9.96875 -16.75 10.34375 -16.15625 C 10.726562 -15.570312 11.035156 -14.960938 11.265625 -14.328125 C 11.503906 -13.679688 11.660156 -13.007812 11.734375 -12.3125 Z M 9.078125 -10.5 C 9.078125 -10.625 9.082031 -10.753906 9.09375 -10.890625 C 9.101562 -11.023438 9.109375 -11.15625 9.109375 -11.28125 C 9.109375 -11.394531 9.101562 -11.507812 9.09375 -11.625 C 9.082031 -11.738281 9.066406 -11.851562 9.046875 -11.96875 C 8.992188 -12.457031 8.878906 -12.929688 8.703125 -13.390625 C 8.347656 -14.347656 7.828125 -15.140625 7.140625 -15.765625 C 6.441406 -16.429688 5.628906 -16.859375 4.703125 -17.046875 C 4.460938 -17.097656 4.195312 -17.125 3.90625 -17.125 L 4.203125 -3.171875 C 4.234375 -3.171875 4.265625 -3.175781 4.296875 -3.1875 C 4.328125 -3.195312 4.351562 -3.210938 4.375 -3.234375 C 5.28125 -3.628906 6.082031 -4.207031 6.78125 -4.96875 C 7.457031 -5.6875 7.992188 -6.523438 8.390625 -7.484375 C 8.773438 -8.429688 9.003906 -9.4375 9.078125 -10.5 Z M 9.078125 -10.5 "/></g></g></g><g fill="#ffffff" fill-opacity="1"><g transform="translate(13.205677, 28.267443)"><g><path d="M 15.765625 -0.390625 L 13.109375 0.03125 C 12.742188 -2.125 12.414062 -4.28125 12.125 -6.4375 C 11.832031 -8.59375 11.550781 -10.757812 11.28125 -12.9375 C 11.269531 -12.914062 11.257812 -12.890625 11.25 -12.859375 C 11.238281 -12.828125 11.234375 -12.796875 11.234375 -12.765625 C 11.097656 -12.253906 10.960938 -11.734375 10.828125 -11.203125 C 10.703125 -10.671875 10.582031 -10.128906 10.46875 -9.578125 L 9.890625 -7.140625 C 9.835938 -6.878906 9.773438 -6.613281 9.703125 -6.34375 C 9.640625 -6.082031 9.582031 -5.820312 9.53125 -5.5625 C 9.46875 -5.289062 9.40625 -5.023438 9.34375 -4.765625 C 9.28125 -4.503906 9.21875 -4.25 9.15625 -4 L 6.546875 -3.890625 L 6.0625 -5.296875 L 5.84375 -6.015625 L 5.609375 -6.71875 L 5.15625 -8.171875 L 4.875 -9.125 L 4.453125 -10.578125 C 4.429688 -10.410156 4.421875 -10.234375 4.421875 -10.046875 C 4.421875 -9.867188 4.410156 -9.695312 4.390625 -9.53125 C 4.335938 -8.070312 4.269531 -6.613281 4.1875 -5.15625 C 4.113281 -3.707031 4.015625 -2.242188 3.890625 -0.765625 L 1.15625 -1.015625 C 1.445312 -3.859375 1.625 -6.734375 1.6875 -9.640625 C 1.75 -12.554688 1.941406 -15.488281 2.265625 -18.4375 L 4.9375 -18.625 C 5.195312 -17.664062 5.46875 -16.695312 5.75 -15.71875 C 6.039062 -14.75 6.328125 -13.78125 6.609375 -12.8125 L 7.484375 -9.921875 L 7.625 -9.4375 L 7.796875 -10.203125 C 7.929688 -10.753906 8.0625 -11.296875 8.1875 -11.828125 C 8.320312 -12.367188 8.457031 -12.90625 8.59375 -13.4375 C 8.726562 -13.988281 8.867188 -14.53125 9.015625 -15.0625 C 9.171875 -15.601562 9.332031 -16.140625 9.5 -16.671875 C 9.664062 -17.222656 9.835938 -17.765625 10.015625 -18.296875 C 10.203125 -18.835938 10.398438 -19.375 10.609375 -19.90625 L 13.25 -19.5625 C 13.601562 -16.351562 13.984375 -13.148438 14.390625 -9.953125 C 14.796875 -6.753906 15.253906 -3.566406 15.765625 -0.390625 Z M 15.765625 -0.390625 "/></g></g></g><g fill="#ffffff" fill-opacity="1"><g transform="translate(29.171556, 28.267443)"><g><path d="M 4.96875 -3.125 C 5.59375 -3.101562 6.21875 -3.070312 6.84375 -3.03125 C 7.476562 -3 8.109375 -2.941406 8.734375 -2.859375 L 8.421875 -0.140625 C 7.835938 -0.210938 7.242188 -0.269531 6.640625 -0.3125 C 6.046875 -0.351562 5.445312 -0.390625 4.84375 -0.421875 C 4.238281 -0.441406 3.628906 -0.460938 3.015625 -0.484375 C 2.398438 -0.503906 1.78125 -0.53125 1.15625 -0.5625 L 1.328125 -3.296875 C 1.328125 -3.296875 1.332031 -3.296875 1.34375 -3.296875 C 1.351562 -3.296875 1.359375 -3.296875 1.359375 -3.296875 C 1.421875 -4.441406 1.476562 -5.59375 1.53125 -6.75 C 1.582031 -7.90625 1.640625 -9.054688 1.703125 -10.203125 C 1.796875 -11.816406 1.894531 -13.421875 2 -15.015625 C 2.101562 -16.609375 2.222656 -18.210938 2.359375 -19.828125 L 5.078125 -19.59375 C 4.941406 -18.007812 4.820312 -16.421875 4.71875 -14.828125 C 4.613281 -13.242188 4.515625 -11.65625 4.421875 -10.0625 C 4.367188 -8.914062 4.3125 -7.769531 4.25 -6.625 C 4.195312 -5.476562 4.140625 -4.328125 4.078125 -3.171875 C 4.234375 -3.148438 4.382812 -3.140625 4.53125 -3.140625 C 4.6875 -3.140625 4.832031 -3.132812 4.96875 -3.125 Z M 4.96875 -3.125 "/></g></g></g></g></g><g clip-path="url(#982196ddd2)"><g clip-path="url(#1888252de5)"><g clip-path="url(#1abe1b9fe8)"><path fill="#ffffff" d="M 47.542969 40.605469 C 47.613281 40.496094 47.613281 40.390625 47.550781 40.324219 C 47.515625 40.289062 47.519531 40.230469 47.523438 40.199219 C 47.527344 40.171875 47.515625 40.144531 47.496094 40.128906 C 47.496094 40.125 47.496094 40.125 47.492188 40.121094 C 47.476562 40.109375 47.449219 40.101562 47.425781 40.105469 C 46.554688 40.296875 41.800781 40.902344 41.148438 40.925781 C 38.667969 40.992188 36.191406 41.125 33.789062 41.320312 C 31.816406 41.480469 29.816406 41.671875 27.882812 41.863281 C 26.835938 41.964844 25.789062 42.066406 24.742188 42.164062 C 23.375 42.289062 21.78125 42.429688 20.214844 42.535156 C 19.792969 42.5625 19.355469 42.578125 18.933594 42.589844 C 18.132812 42.613281 17.304688 42.640625 16.515625 42.769531 C 16.476562 42.773438 16.445312 42.808594 16.445312 42.847656 C 16.441406 43.003906 16.449219 43.160156 16.46875 43.308594 C 16.472656 43.355469 16.515625 43.386719 16.558594 43.378906 C 18.988281 43.082031 21.335938 42.921875 23.820312 42.75 L 25.007812 42.667969 C 25.5625 42.628906 26.128906 42.578125 26.675781 42.527344 C 27.675781 42.433594 28.710938 42.339844 29.730469 42.320312 C 30.164062 42.3125 30.605469 42.320312 31.03125 42.332031 C 31.9375 42.351562 32.871094 42.367188 33.792969 42.222656 C 35.414062 41.964844 37.050781 41.851562 38.636719 41.742188 C 39.542969 41.679688 40.484375 41.613281 41.414062 41.523438 C 41.894531 41.476562 42.375 41.433594 42.863281 41.394531 C 44.265625 41.273438 45.71875 41.148438 47.101562 40.878906 C 47.128906 40.875 47.152344 40.855469 47.164062 40.828125 C 47.183594 40.773438 47.230469 40.738281 47.300781 40.734375 C 47.386719 40.726562 47.472656 40.710938 47.542969 40.605469 " fill-opacity="1" fill-rule="nonzero"/></g></g></g><g clip-path="url(#cf6a7c9963)"><g clip-path="url(#cfcf60c03c)"><g clip-path="url(#10470130de)"><path fill="#ffffff" d="M 16.605469 44.523438 C 16.613281 44.703125 16.621094 44.890625 16.640625 45.078125 C 16.652344 45.175781 16.664062 45.285156 16.667969 45.417969 C 16.671875 45.441406 16.679688 45.460938 16.699219 45.476562 C 16.699219 45.476562 16.699219 45.480469 16.699219 45.480469 C 16.714844 45.492188 16.738281 45.5 16.761719 45.496094 C 17.957031 45.316406 19.175781 45.261719 20.355469 45.207031 C 21.496094 45.15625 22.675781 45.105469 23.839844 44.9375 C 26.632812 44.535156 29.34375 44.28125 32.128906 44.164062 C 34.890625 44.046875 37.6875 43.78125 40.390625 43.527344 C 42.640625 43.316406 44.964844 43.097656 47.257812 42.964844 C 47.277344 42.964844 47.296875 42.957031 47.308594 42.941406 C 47.320312 42.933594 47.328125 42.925781 47.335938 42.914062 C 47.34375 42.90625 47.347656 42.898438 47.351562 42.894531 C 47.707031 42.652344 47.910156 42.351562 47.945312 42.003906 C 47.972656 41.777344 47.726562 41.519531 47.476562 41.320312 C 47.4375 41.289062 47.402344 41.261719 47.367188 41.238281 C 47.351562 41.222656 47.324219 41.21875 47.304688 41.222656 C 45.5 41.589844 43.582031 41.726562 41.730469 41.863281 L 41.183594 41.902344 C 40.546875 41.949219 39.898438 41.976562 39.269531 42.003906 C 38.652344 42.027344 38.019531 42.054688 37.390625 42.101562 C 36.632812 42.152344 35.875 42.277344 35.140625 42.398438 C 34.570312 42.492188 33.976562 42.589844 33.386719 42.652344 C 32.558594 42.742188 31.714844 42.730469 30.898438 42.714844 C 30.222656 42.699219 29.523438 42.6875 28.832031 42.734375 C 28.238281 42.773438 27.636719 42.828125 27.054688 42.878906 C 26.25 42.953125 25.414062 43.023438 24.59375 43.066406 C 21.902344 43.199219 19.292969 43.421875 16.625 43.75 C 16.601562 43.753906 16.582031 43.765625 16.570312 43.78125 C 16.554688 43.800781 16.550781 43.824219 16.554688 43.84375 C 16.589844 44.070312 16.597656 44.300781 16.605469 44.523438 " fill-opacity="1" fill-rule="nonzero"/></g></g></g><g clip-path="url(#bdfbef4b0b)"><g clip-path="url(#1725f66660)"><g clip-path="url(#c56e007ba4)"><path fill="#ffffff" d="M 16.472656 46.703125 C 16.464844 46.566406 16.453125 46.429688 16.40625 46.289062 C 16.300781 45.957031 16.28125 45.515625 16.269531 45.128906 C 16.253906 44.628906 16.210938 44.15625 16.140625 43.625 L 16.121094 43.496094 C 16.09375 43.28125 16.066406 43.074219 16.066406 42.867188 C 16.066406 42.828125 16.027344 42.804688 16.003906 42.761719 C 16 42.75 15.992188 42.742188 15.980469 42.738281 C 15.972656 42.726562 15.960938 42.722656 15.945312 42.71875 C 15.804688 42.699219 15.625 42.703125 15.386719 42.734375 C 15.347656 42.742188 15.316406 42.773438 15.316406 42.8125 C 15.308594 43.03125 15.289062 43.253906 15.269531 43.46875 C 15.222656 43.976562 15.179688 44.507812 15.28125 45.03125 C 15.28125 45.035156 15.28125 45.035156 15.28125 45.035156 C 15.347656 45.371094 15.390625 45.71875 15.433594 46.058594 C 15.464844 46.308594 15.496094 46.566406 15.535156 46.816406 C 15.542969 46.855469 15.578125 46.886719 15.617188 46.886719 C 15.828125 46.886719 16.097656 46.9375 16.335938 46.984375 L 16.398438 46.996094 C 16.421875 47 16.449219 46.992188 16.46875 46.972656 C 16.488281 46.953125 16.5 46.929688 16.492188 46.902344 C 16.484375 46.835938 16.480469 46.769531 16.472656 46.703125 " fill-opacity="1" fill-rule="nonzero"/></g></g></g><g clip-path="url(#fb85d72e4f)"><g clip-path="url(#836b582480)"><g clip-path="url(#2a54605ba4)"><path fill="#ffffff" d="M 53.980469 41.878906 C 53.972656 41.828125 53.960938 41.773438 53.945312 41.722656 C 53.910156 41.585938 53.925781 41.488281 53.964844 41.378906 C 53.972656 41.355469 53.972656 41.332031 53.960938 41.3125 C 53.953125 41.300781 53.949219 41.292969 53.9375 41.285156 C 53.929688 41.277344 53.914062 41.273438 53.902344 41.269531 C 53.382812 41.171875 52.828125 41.078125 52.222656 41.035156 L 51.757812 41.003906 C 51.035156 40.953125 50.292969 40.902344 49.558594 40.871094 C 49.125 40.851562 48.785156 40.746094 48.429688 40.632812 C 48.308594 40.59375 48.183594 40.554688 48.054688 40.519531 C 48.035156 40.515625 48.011719 40.515625 47.992188 40.527344 C 47.972656 40.539062 47.957031 40.558594 47.953125 40.578125 C 47.933594 40.664062 47.898438 40.742188 47.851562 40.804688 C 47.820312 40.859375 47.785156 40.902344 47.738281 40.945312 C 47.71875 40.960938 47.710938 40.984375 47.710938 41.007812 C 47.710938 41.03125 47.722656 41.054688 47.742188 41.070312 C 48.1875 41.425781 48.398438 41.675781 48.3125 42.050781 C 48.21875 42.472656 48.058594 42.78125 47.8125 43.015625 C 47.796875 43.035156 47.789062 43.058594 47.789062 43.082031 C 47.789062 43.125 47.835938 43.15625 47.867188 43.183594 C 47.886719 43.199219 47.90625 43.214844 47.9375 43.238281 C 48.070312 43.351562 48.199219 43.457031 48.246094 43.605469 C 48.269531 43.679688 48.269531 43.75 48.253906 43.824219 C 48.246094 43.855469 48.253906 43.882812 48.273438 43.902344 C 48.292969 43.925781 48.324219 43.933594 48.351562 43.925781 C 48.433594 43.910156 48.511719 43.890625 48.59375 43.875 C 48.902344 43.808594 49.226562 43.742188 49.527344 43.621094 C 50.355469 43.308594 51.214844 43.066406 52.050781 42.835938 C 52.25 42.777344 52.445312 42.722656 52.644531 42.667969 C 53.097656 42.535156 53.554688 42.402344 54.011719 42.269531 C 54.035156 42.261719 54.054688 42.242188 54.0625 42.222656 C 54.074219 42.199219 54.070312 42.171875 54.058594 42.152344 C 54.019531 42.074219 54 41.980469 53.980469 41.878906 " fill-opacity="1" fill-rule="nonzero"/></g></g></g><g clip-path="url(#5e669812a5)"><g clip-path="url(#f9a55d1c19)"><g clip-path="url(#214da2a1d6)"><path fill="#ffffff" d="M 14.289062 46.839844 C 14.285156 46.816406 14.28125 46.792969 14.277344 46.769531 C 14.230469 46.417969 14.234375 46.058594 14.238281 45.710938 C 14.238281 45.476562 14.242188 45.234375 14.230469 44.996094 C 14.21875 44.777344 14.21875 44.546875 14.21875 44.320312 C 14.214844 43.882812 14.214844 43.429688 14.148438 43.003906 C 14.144531 42.984375 14.132812 42.964844 14.117188 42.953125 C 14.109375 42.945312 14.101562 42.941406 14.09375 42.941406 C 14.066406 42.929688 14.035156 42.933594 14.011719 42.957031 C 13.996094 42.96875 13.976562 42.972656 13.941406 42.972656 C 13.890625 42.976562 13.804688 42.984375 13.757812 43.074219 C 13.671875 43.238281 13.738281 43.449219 13.792969 43.632812 C 13.820312 43.710938 13.84375 43.785156 13.851562 43.84375 C 13.851562 43.847656 13.851562 43.847656 13.851562 43.847656 C 13.890625 44.132812 13.855469 44.460938 13.824219 44.777344 L 13.804688 44.972656 C 13.765625 45.398438 13.757812 45.816406 13.785156 46.285156 C 13.785156 46.335938 13.785156 46.394531 13.785156 46.453125 C 13.785156 46.605469 13.78125 46.78125 13.851562 46.925781 C 13.875 46.984375 13.945312 47.132812 14.101562 47.144531 C 14.171875 47.148438 14.226562 47.128906 14.261719 47.089844 C 14.324219 47.019531 14.304688 46.921875 14.289062 46.839844 " fill-opacity="1" fill-rule="nonzero"/></g></g></g><g clip-path="url(#8e6a6e1a15)"><g clip-path="url(#f683974d5c)"><g clip-path="url(#af7bf307e5)"><path fill="#ffffff" d="M 47.839844 43.828125 C 47.851562 43.8125 47.859375 43.804688 47.867188 43.796875 C 47.882812 43.78125 47.894531 43.746094 47.890625 43.71875 C 47.890625 43.695312 47.867188 43.667969 47.847656 43.65625 L 47.84375 43.652344 C 47.84375 43.652344 47.84375 43.652344 47.839844 43.652344 C 47.8125 43.625 47.78125 43.597656 47.75 43.566406 C 47.695312 43.515625 47.632812 43.457031 47.570312 43.40625 C 47.542969 43.382812 47.511719 43.363281 47.484375 43.34375 C 47.46875 43.332031 47.453125 43.328125 47.433594 43.328125 C 45.152344 43.460938 42.835938 43.679688 40.597656 43.894531 C 37.84375 44.160156 34.996094 44.429688 32.179688 44.535156 C 31.769531 44.550781 31.363281 44.558594 30.949219 44.570312 C 29.851562 44.597656 28.710938 44.625 27.605469 44.75 C 26.898438 44.828125 26.1875 44.945312 25.5 45.058594 C 24.816406 45.171875 24.109375 45.289062 23.40625 45.367188 C 22.4375 45.472656 21.453125 45.519531 20.5 45.566406 C 19.285156 45.625 18.03125 45.683594 16.792969 45.867188 C 16.769531 45.871094 16.75 45.882812 16.738281 45.902344 C 16.726562 45.917969 16.722656 45.941406 16.722656 45.964844 C 16.746094 46.074219 16.769531 46.179688 16.800781 46.289062 C 16.824219 46.355469 16.824219 46.445312 16.824219 46.542969 C 16.824219 46.59375 16.824219 46.640625 16.828125 46.6875 C 16.828125 46.710938 16.839844 46.730469 16.855469 46.742188 C 16.867188 46.753906 16.894531 46.765625 16.917969 46.761719 C 17.699219 46.707031 18.5 46.65625 19.273438 46.609375 C 21.019531 46.503906 22.820312 46.390625 24.585938 46.171875 C 26.585938 45.921875 28.613281 45.847656 30.574219 45.777344 C 31.4375 45.746094 32.332031 45.714844 33.21875 45.667969 C 35.828125 45.527344 38.671875 45.257812 42.167969 44.824219 C 43.246094 44.691406 44.335938 44.585938 45.394531 44.484375 C 46.0625 44.421875 46.726562 44.359375 47.398438 44.285156 C 47.421875 44.285156 47.445312 44.269531 47.457031 44.25 C 47.480469 44.214844 47.503906 44.195312 47.542969 44.179688 C 47.558594 44.171875 47.578125 44.164062 47.59375 44.15625 C 47.605469 44.148438 47.613281 44.140625 47.621094 44.132812 C 47.652344 44.089844 47.683594 44.042969 47.714844 44 C 47.753906 43.941406 47.792969 43.886719 47.839844 43.828125 " fill-opacity="1" fill-rule="nonzero"/></g></g></g><g clip-path="url(#1344fd8b9d)"><g clip-path="url(#a41f663f50)"><g clip-path="url(#95aee091ba)"><path fill="#ffffff" d="M 56.0625 41.488281 C 56.050781 41.476562 56.03125 41.472656 56.015625 41.472656 C 55.898438 41.46875 55.78125 41.46875 55.664062 41.464844 C 55.3125 41.460938 54.976562 41.457031 54.699219 41.410156 C 54.640625 41.402344 54.582031 41.390625 54.523438 41.378906 L 54.441406 41.367188 C 54.40625 41.359375 54.367188 41.390625 54.347656 41.417969 C 54.3125 41.484375 54.289062 41.527344 54.292969 41.578125 L 54.300781 41.609375 C 54.3125 41.660156 54.324219 41.707031 54.335938 41.753906 C 54.332031 41.757812 54.335938 41.757812 54.335938 41.757812 C 54.339844 41.773438 54.339844 41.792969 54.34375 41.8125 C 54.351562 41.875 54.363281 41.957031 54.425781 42.023438 C 54.425781 42.027344 54.429688 42.03125 54.4375 42.042969 C 54.4375 42.046875 54.445312 42.0625 54.445312 42.066406 C 54.460938 42.101562 54.503906 42.121094 54.542969 42.109375 C 55.078125 41.949219 55.566406 41.792969 56.039062 41.632812 C 56.074219 41.617188 56.101562 41.582031 56.09375 41.539062 C 56.089844 41.519531 56.078125 41.5 56.0625 41.488281 " fill-opacity="1" fill-rule="nonzero"/></g></g></g><g clip-path="url(#0b026cc757)"><g clip-path="url(#036803abae)"><g clip-path="url(#186163b5d9)"><path fill="#ffffff" d="M 15.007812 45.820312 C 14.992188 45.660156 14.957031 45.496094 14.925781 45.335938 C 14.886719 45.132812 14.84375 44.925781 14.839844 44.734375 C 14.828125 44.335938 14.863281 43.929688 14.894531 43.542969 C 14.910156 43.332031 14.925781 43.125 14.9375 42.914062 C 14.9375 42.890625 14.925781 42.867188 14.910156 42.851562 C 14.910156 42.847656 14.90625 42.847656 14.90625 42.847656 C 14.890625 42.832031 14.867188 42.828125 14.84375 42.828125 C 14.832031 42.832031 14.820312 42.832031 14.808594 42.835938 C 14.796875 42.835938 14.785156 42.839844 14.761719 42.839844 C 14.703125 42.851562 14.644531 42.863281 14.589844 42.871094 C 14.546875 42.878906 14.515625 42.914062 14.519531 42.957031 C 14.566406 43.675781 14.597656 44.34375 14.601562 44.941406 C 14.605469 45.121094 14.597656 45.300781 14.59375 45.476562 C 14.578125 45.976562 14.558594 46.492188 14.691406 47.003906 C 14.703125 47.042969 14.738281 47.070312 14.78125 47.066406 C 14.898438 47.050781 15.015625 47.035156 15.109375 47.015625 C 15.152344 47.007812 15.183594 46.96875 15.175781 46.921875 C 15.101562 46.515625 15.046875 46.175781 15.007812 45.820312 " fill-opacity="1" fill-rule="nonzero"/></g></g></g><g clip-path="url(#2b8e91e909)"><g clip-path="url(#035508b7c9)"><g clip-path="url(#04a1350094)"><path fill="#ffffff" d="M 13.214844 46.914062 C 13.03125 46.949219 12.796875 46.933594 12.609375 46.921875 C 12.457031 46.921875 12.304688 46.898438 12.140625 46.855469 C 12.007812 46.824219 11.964844 46.695312 11.992188 46.59375 C 12 46.558594 12.039062 46.445312 12.175781 46.480469 C 12.324219 46.519531 12.503906 46.558594 12.683594 46.554688 C 12.726562 46.554688 12.773438 46.554688 12.816406 46.558594 C 12.941406 46.558594 13.066406 46.558594 13.1875 46.539062 C 13.332031 46.511719 13.367188 46.632812 13.375 46.671875 C 13.386719 46.753906 13.359375 46.886719 13.214844 46.914062 Z M 11.703125 45.921875 C 11.714844 45.828125 11.785156 45.730469 11.910156 45.746094 C 12.179688 45.777344 12.453125 45.78125 12.71875 45.785156 C 12.832031 45.789062 12.949219 45.789062 13.0625 45.796875 C 13.105469 45.796875 13.140625 45.824219 13.160156 45.847656 C 13.195312 45.894531 13.214844 45.953125 13.207031 46.003906 C 13.191406 46.128906 13.082031 46.167969 12.984375 46.164062 C 12.882812 46.160156 12.777344 46.15625 12.671875 46.15625 C 12.402344 46.152344 12.121094 46.144531 11.851562 46.117188 C 11.726562 46.101562 11.695312 46.003906 11.703125 45.921875 Z M 11.589844 45.414062 C 11.574219 45.402344 11.5625 45.390625 11.554688 45.378906 C 11.515625 45.320312 11.503906 45.234375 11.535156 45.167969 C 11.558594 45.117188 11.609375 45.085938 11.675781 45.078125 C 11.84375 45.0625 12.011719 45.066406 12.1875 45.074219 L 12.304688 45.078125 C 12.378906 45.082031 12.449219 45.082031 12.519531 45.082031 C 12.65625 45.082031 12.78125 45.082031 12.910156 45.105469 C 12.964844 45.117188 13.007812 45.144531 13.035156 45.1875 C 13.058594 45.226562 13.066406 45.28125 13.054688 45.332031 C 13.046875 45.378906 13.023438 45.421875 12.992188 45.449219 C 12.957031 45.476562 12.910156 45.484375 12.855469 45.476562 C 12.726562 45.453125 12.597656 45.453125 12.46875 45.453125 C 12.410156 45.453125 12.355469 45.453125 12.292969 45.449219 L 12.171875 45.445312 C 12.023438 45.441406 11.871094 45.4375 11.71875 45.449219 C 11.660156 45.457031 11.617188 45.4375 11.589844 45.414062 Z M 11.550781 44.496094 C 11.515625 44.46875 11.492188 44.429688 11.484375 44.378906 C 11.480469 44.328125 11.503906 44.265625 11.542969 44.222656 C 11.558594 44.203125 11.597656 44.171875 11.644531 44.167969 C 11.753906 44.167969 11.871094 44.179688 11.980469 44.191406 C 12.21875 44.210938 12.46875 44.238281 12.71875 44.15625 C 12.804688 44.125 12.867188 44.15625 12.902344 44.191406 C 12.957031 44.238281 12.984375 44.320312 12.972656 44.386719 C 12.960938 44.441406 12.925781 44.480469 12.863281 44.5 C 12.644531 44.570312 12.453125 44.601562 12.265625 44.585938 C 12.191406 44.582031 12.117188 44.574219 12.039062 44.566406 C 11.929688 44.554688 11.816406 44.542969 11.703125 44.542969 C 11.652344 44.542969 11.59375 44.53125 11.550781 44.496094 Z M 11.746094 43.726562 C 11.71875 43.667969 11.730469 43.578125 11.773438 43.519531 C 11.800781 43.480469 11.851562 43.433594 11.945312 43.441406 C 11.945312 43.441406 11.945312 43.441406 11.945312 43.445312 L 12.039062 43.449219 C 12.167969 43.460938 12.296875 43.46875 12.410156 43.5 C 12.472656 43.519531 12.554688 43.507812 12.65625 43.488281 L 12.703125 43.480469 C 12.773438 43.46875 12.832031 43.46875 12.886719 43.476562 C 13.011719 43.5 13.050781 43.609375 13.035156 43.707031 C 13.023438 43.753906 13.003906 43.796875 12.96875 43.820312 C 12.933594 43.851562 12.886719 43.859375 12.835938 43.851562 C 12.773438 43.839844 12.703125 43.847656 12.644531 43.859375 C 12.625 43.863281 12.609375 43.863281 12.59375 43.867188 C 12.515625 43.871094 12.441406 43.871094 12.363281 43.871094 L 12.347656 43.871094 C 12.265625 43.867188 12.179688 43.855469 12.089844 43.839844 C 12.023438 43.828125 11.953125 43.816406 11.878906 43.808594 C 11.839844 43.808594 11.808594 43.796875 11.785156 43.777344 C 11.769531 43.765625 11.757812 43.746094 11.746094 43.726562 Z M 13.6875 46.640625 C 13.625 45.96875 13.5625 45.332031 13.574219 44.660156 C 13.578125 44.277344 13.574219 43.863281 13.527344 43.445312 C 13.519531 43.386719 13.507812 43.332031 13.5 43.277344 C 13.492188 43.226562 13.480469 43.175781 13.476562 43.121094 C 13.472656 43.101562 13.460938 43.082031 13.445312 43.070312 C 13.445312 43.070312 13.441406 43.070312 13.441406 43.070312 C 13.425781 43.054688 13.402344 43.046875 13.382812 43.050781 C 13.234375 43.074219 13.089844 43.085938 12.9375 43.101562 L 12.917969 43.105469 C 12.789062 43.113281 12.628906 43.101562 12.464844 43.085938 C 12.128906 43.058594 11.746094 43.023438 11.480469 43.195312 C 11.40625 43.246094 11.308594 43.253906 11.238281 43.25 C 11.214844 43.25 11.195312 43.257812 11.179688 43.273438 C 11.164062 43.289062 11.152344 43.308594 11.152344 43.332031 C 11.152344 44.679688 11.328125 45.921875 11.707031 47.242188 C 11.71875 47.277344 11.753906 47.300781 11.792969 47.300781 C 12.355469 47.257812 12.957031 47.226562 13.558594 47.257812 C 13.605469 47.257812 13.644531 47.25 13.675781 47.242188 C 13.714844 47.230469 13.738281 47.195312 13.734375 47.15625 C 13.71875 46.980469 13.703125 46.808594 13.6875 46.640625 " fill-opacity="1" fill-rule="nonzero"/></g></g></g><g clip-path="url(#9dc07f98cf)"><g clip-path="url(#b119540770)"><g clip-path="url(#cfb7691c5e)"><path fill="#ffffff" d="M 10.847656 45.074219 C 10.773438 44.484375 10.773438 43.925781 10.78125 43.355469 C 10.78125 43.332031 10.769531 43.308594 10.753906 43.292969 C 10.75 43.292969 10.75 43.289062 10.75 43.289062 C 10.730469 43.273438 10.707031 43.269531 10.6875 43.273438 C 10.457031 43.304688 10.203125 43.355469 10.121094 43.386719 C 10.035156 43.425781 9.925781 43.355469 9.894531 43.332031 C 9.871094 43.316406 9.835938 43.3125 9.8125 43.328125 C 9.785156 43.339844 9.769531 43.363281 9.765625 43.394531 C 9.734375 43.746094 9.746094 44.089844 9.757812 44.449219 L 9.765625 44.722656 C 9.769531 44.980469 9.832031 45.226562 9.894531 45.460938 C 9.929688 45.582031 9.960938 45.703125 9.984375 45.832031 C 10 45.917969 10.015625 46.019531 10.027344 46.128906 C 10.078125 46.519531 10.144531 47.007812 10.378906 47.253906 C 10.40625 47.277344 10.421875 47.304688 10.429688 47.339844 C 10.441406 47.375 10.476562 47.398438 10.515625 47.398438 C 10.761719 47.378906 11.003906 47.363281 11.25 47.339844 C 11.273438 47.339844 11.296875 47.324219 11.308594 47.304688 C 11.324219 47.285156 11.328125 47.261719 11.320312 47.234375 C 11.128906 46.566406 10.941406 45.84375 10.847656 45.074219 " fill-opacity="1" fill-rule="nonzero"/></g></g></g><g clip-path="url(#ba5fa6b7a6)"><g clip-path="url(#7c9838eab0)"><g clip-path="url(#8a9a86584e)"><path fill="#ffffff" d="M 9.972656 47.300781 C 9.738281 46.910156 9.652344 46.394531 9.574219 45.898438 C 9.539062 45.691406 9.507812 45.492188 9.464844 45.308594 C 9.394531 45.003906 9.386719 44.707031 9.382812 44.390625 C 9.382812 44.277344 9.378906 44.160156 9.371094 44.050781 C 9.371094 43.964844 9.351562 43.878906 9.335938 43.796875 C 9.3125 43.691406 9.292969 43.589844 9.304688 43.5 C 9.304688 43.484375 9.3125 43.472656 9.316406 43.457031 C 9.320312 43.4375 9.324219 43.417969 9.328125 43.398438 C 9.332031 43.371094 9.324219 43.34375 9.300781 43.324219 C 9.300781 43.324219 9.300781 43.324219 9.296875 43.320312 C 9.277344 43.304688 9.25 43.300781 9.222656 43.308594 C 9.050781 43.359375 8.851562 43.4375 8.628906 43.53125 C 8.597656 43.542969 8.578125 43.574219 8.578125 43.605469 C 8.578125 43.71875 8.570312 43.832031 8.5625 43.945312 C 8.554688 44.097656 8.542969 44.253906 8.546875 44.410156 C 8.546875 44.53125 8.527344 44.664062 8.507812 44.792969 L 8.5 44.839844 C 8.472656 45.003906 8.488281 45.144531 8.503906 45.28125 C 8.511719 45.347656 8.519531 45.417969 8.523438 45.488281 C 8.535156 45.886719 8.570312 46.324219 8.730469 46.824219 C 8.765625 46.941406 8.769531 47.070312 8.773438 47.210938 C 8.773438 47.25 8.773438 47.292969 8.777344 47.332031 C 8.777344 47.375 8.808594 47.40625 8.851562 47.410156 C 9.199219 47.433594 9.546875 47.4375 9.90625 47.425781 C 9.933594 47.425781 9.960938 47.410156 9.972656 47.382812 C 9.988281 47.359375 9.988281 47.328125 9.972656 47.300781 " fill-opacity="1" fill-rule="nonzero"/></g></g></g><g clip-path="url(#71f36a98e3)"><g clip-path="url(#1102634570)"><g clip-path="url(#e139394420)"><path fill="#ffffff" d="M 5.457031 44.324219 C 5.425781 44.523438 5.394531 44.730469 5.378906 44.933594 C 5.355469 45.226562 5.410156 45.535156 5.464844 45.832031 C 5.476562 45.902344 5.492188 45.972656 5.5 46.042969 L 5.53125 46.226562 C 5.570312 46.5 5.613281 46.777344 5.679688 47.050781 C 5.695312 47.128906 5.71875 47.203125 5.738281 47.277344 C 5.773438 47.394531 5.804688 47.5 5.816406 47.613281 C 5.820312 47.648438 5.851562 47.675781 5.882812 47.683594 C 6.335938 47.769531 6.96875 47.835938 7.4375 47.679688 C 7.65625 47.605469 7.878906 47.574219 8.117188 47.539062 C 8.1875 47.527344 8.257812 47.519531 8.328125 47.507812 C 8.351562 47.503906 8.371094 47.492188 8.382812 47.472656 C 8.394531 47.457031 8.402344 47.433594 8.398438 47.414062 C 8.378906 47.316406 8.367188 47.222656 8.355469 47.125 C 8.332031 46.941406 8.304688 46.753906 8.257812 46.5625 C 8.214844 46.390625 8.207031 46.207031 8.199219 46.03125 C 8.191406 45.867188 8.183594 45.695312 8.148438 45.527344 C 8.0625 45.140625 8.109375 44.75 8.15625 44.339844 C 8.179688 44.160156 8.199219 43.980469 8.207031 43.796875 C 8.210938 43.769531 8.199219 43.746094 8.179688 43.730469 C 8.175781 43.726562 8.175781 43.726562 8.175781 43.726562 C 8.152344 43.710938 8.125 43.707031 8.097656 43.714844 C 7.460938 43.953125 6.730469 43.980469 6.023438 44.007812 C 5.871094 44.011719 5.71875 44.019531 5.570312 44.027344 C 5.53125 44.03125 5.5 44.058594 5.492188 44.097656 C 5.480469 44.171875 5.46875 44.246094 5.457031 44.324219 " fill-opacity="1" fill-rule="nonzero"/></g></g></g></svg>